<svg xmlns="http://www.w3.org/2000/svg" xmlns:xlink="http://www.w3.org/1999/xlink" width="959" zoomAndPan="magnify" viewBox="0 0 719.25 266.250005" height="355" preserveAspectRatio="xMidYMid meet" version="1.0"><defs><g/><clipPath id="97c3f19768"><path d="M 110.621094 0.0625 L 328.257812 0.0625 L 328.257812 148.453125 L 110.621094 148.453125 Z M 110.621094 0.0625 " clip-rule="nonzero"/></clipPath></defs><g fill="#bf770a" fill-opacity="0.4"><g transform="translate(101.14367, 151.092346)"><g><path d="M 5.296875 0.265625 C 4.816406 0.265625 4.445312 0.078125 4.1875 -0.296875 C 3.925781 -0.679688 3.796875 -1.140625 3.796875 -1.671875 C 3.847656 -2.554688 4.019531 -3.085938 4.3125 -3.265625 C 4.613281 -3.441406 5.175781 -3.53125 6 -3.53125 C 7.695312 -3.53125 8.957031 -3.835938 9.78125 -4.453125 C 10.601562 -5.066406 11.117188 -5.828125 11.328125 -6.734375 C 11.535156 -7.648438 11.671875 -8.84375 11.734375 -10.3125 L 11.734375 -45.328125 C 11.671875 -46.796875 11.535156 -47.984375 11.328125 -48.890625 C 11.117188 -49.804688 10.601562 -50.570312 9.78125 -51.1875 C 8.957031 -51.8125 7.695312 -52.125 6 -52.125 L 5.46875 -52.125 C 4.875 -52.125 4.457031 -52.222656 4.21875 -52.421875 C 3.988281 -52.628906 3.847656 -53.144531 3.796875 -53.96875 C 3.796875 -54.5 3.925781 -54.953125 4.1875 -55.328125 C 4.445312 -55.710938 4.816406 -55.90625 5.296875 -55.90625 C 9.171875 -55.726562 12.664062 -55.640625 15.78125 -55.640625 L 29.546875 -55.640625 C 35.191406 -55.640625 40.320312 -54.507812 44.9375 -52.25 C 49.550781 -49.988281 53.191406 -46.738281 55.859375 -42.5 C 58.535156 -38.269531 59.875 -33.273438 59.875 -27.515625 C 59.875 -21.515625 58.359375 -16.441406 55.328125 -12.296875 C 52.304688 -8.148438 48.367188 -5.0625 43.515625 -3.03125 C 38.671875 -1.007812 33.484375 0 27.953125 0 L 15.78125 0 C 12.664062 0 9.171875 0.0859375 5.296875 0.265625 Z M 29.28125 -3.265625 C 36.15625 -3.265625 41.191406 -5.394531 44.390625 -9.65625 C 47.597656 -13.914062 49.203125 -19.867188 49.203125 -27.515625 C 49.203125 -32.335938 48.332031 -36.644531 46.59375 -40.4375 C 44.863281 -44.226562 42.351562 -47.179688 39.0625 -49.296875 C 35.769531 -51.410156 31.863281 -52.46875 27.34375 -52.46875 L 20.453125 -52.390625 L 20.453125 -9.265625 C 20.453125 -6.972656 21.144531 -5.398438 22.53125 -4.546875 C 23.914062 -3.691406 26.164062 -3.265625 29.28125 -3.265625 Z M 29.28125 -3.265625 "/></g></g></g><g fill="#bf770a" fill-opacity="0.4"><g transform="translate(165.339696, 151.092346)"><g><path d="M 5.375 0.265625 C 4.84375 0.265625 4.445312 0.078125 4.1875 -0.296875 C 3.925781 -0.679688 3.796875 -1.140625 3.796875 -1.671875 C 3.847656 -2.554688 4.019531 -3.085938 4.3125 -3.265625 C 4.613281 -3.441406 5.175781 -3.53125 6 -3.53125 C 7.695312 -3.53125 8.957031 -3.835938 9.78125 -4.453125 C 10.601562 -5.066406 11.117188 -5.828125 11.328125 -6.734375 C 11.535156 -7.648438 11.671875 -8.84375 11.734375 -10.3125 L 11.734375 -45.234375 C 11.671875 -46.765625 11.535156 -47.96875 11.328125 -48.84375 C 11.117188 -49.726562 10.601562 -50.492188 9.78125 -51.140625 C 8.957031 -51.796875 7.695312 -52.125 6 -52.125 L 5.46875 -52.125 C 4.875 -52.125 4.457031 -52.222656 4.21875 -52.421875 C 3.988281 -52.628906 3.847656 -53.144531 3.796875 -53.96875 C 3.796875 -54.5 3.925781 -54.953125 4.1875 -55.328125 C 4.445312 -55.710938 4.84375 -55.90625 5.375 -55.90625 C 9.195312 -55.726562 12.695312 -55.640625 15.875 -55.640625 L 31.046875 -55.640625 C 35.566406 -55.585938 39.34375 -54.867188 42.375 -53.484375 C 45.40625 -52.097656 47.625 -50.332031 49.03125 -48.1875 C 50.445312 -46.039062 51.15625 -43.734375 51.15625 -41.265625 C 51.15625 -38.035156 49.875 -35.066406 47.3125 -32.359375 C 44.75 -29.660156 41.265625 -27.722656 36.859375 -26.546875 L 38.359375 -24.15625 C 40.828125 -20.164062 43.0625 -16.742188 45.0625 -13.890625 C 47.0625 -11.035156 49.238281 -8.375 51.59375 -5.90625 C 53.238281 -4.550781 55 -3.757812 56.875 -3.53125 C 57 -3.53125 57.265625 -3.515625 57.671875 -3.484375 C 58.085938 -3.453125 58.425781 -3.289062 58.6875 -3 C 58.945312 -2.707031 59.078125 -2.265625 59.078125 -1.671875 C 59.078125 -1.140625 58.945312 -0.679688 58.6875 -0.296875 C 58.425781 0.078125 58.03125 0.265625 57.5 0.265625 L 55.203125 0.171875 C 52.617188 0.0546875 50.738281 0 49.5625 0 C 47.207031 -0.46875 45.191406 -1.304688 43.515625 -2.515625 C 41.835938 -3.722656 40.175781 -5.441406 38.53125 -7.671875 C 36.832031 -9.898438 34.453125 -13.546875 31.390625 -18.609375 L 29.8125 -21.171875 C 28.925781 -22.515625 28.070312 -23.4375 27.25 -23.9375 C 26.425781 -24.4375 25.015625 -24.6875 23.015625 -24.6875 L 20.453125 -24.6875 L 20.453125 -10.3125 C 20.515625 -8.84375 20.648438 -7.648438 20.859375 -6.734375 C 21.066406 -5.828125 21.582031 -5.066406 22.40625 -4.453125 C 23.226562 -3.835938 24.488281 -3.53125 26.1875 -3.53125 L 26.71875 -3.53125 C 27.25 -3.53125 27.644531 -3.425781 27.90625 -3.21875 C 28.175781 -3.007812 28.335938 -2.492188 28.390625 -1.671875 C 28.390625 -1.140625 28.257812 -0.679688 28 -0.296875 C 27.738281 0.078125 27.34375 0.265625 26.8125 0.265625 C 23.050781 0.0859375 19.375 0 15.78125 0 C 12.664062 0 9.195312 0.0859375 5.375 0.265625 Z M 28.21875 -28.125 C 36.976562 -28.125 41.359375 -32.242188 41.359375 -40.484375 C 41.359375 -43.828125 40.210938 -46.644531 37.921875 -48.9375 C 35.628906 -51.238281 31.863281 -52.390625 26.625 -52.390625 C 24.925781 -52.390625 23.632812 -52.179688 22.75 -51.765625 C 21.863281 -51.359375 21.257812 -50.65625 20.9375 -49.65625 C 20.613281 -48.65625 20.453125 -47.125 20.453125 -45.0625 L 20.453125 -28.125 Z M 28.21875 -28.125 "/></g></g></g><g fill="#bf770a" fill-opacity="0.4"><g transform="translate(224.509376, 151.092346)"><g><path d="M 0.53125 0.265625 C 0 0.265625 -0.394531 0.078125 -0.65625 -0.296875 C -0.925781 -0.679688 -1.0625 -1.140625 -1.0625 -1.671875 C -1 -2.554688 -0.820312 -3.085938 -0.53125 -3.265625 C -0.238281 -3.441406 0.109375 -3.53125 0.515625 -3.53125 C 0.929688 -3.53125 1.203125 -3.53125 1.328125 -3.53125 C 3.085938 -3.53125 4.378906 -3.984375 5.203125 -4.890625 C 6.023438 -5.804688 6.6875 -6.835938 7.1875 -7.984375 C 7.6875 -9.128906 8.023438 -9.90625 8.203125 -10.3125 L 23.640625 -46.828125 C 23.984375 -47.710938 24.15625 -48.414062 24.15625 -48.9375 C 24.15625 -50 23.742188 -50.765625 22.921875 -51.234375 C 22.097656 -51.703125 20.953125 -52.085938 19.484375 -52.390625 C 18.484375 -52.554688 17.863281 -52.726562 17.625 -52.90625 C 17.394531 -53.082031 17.28125 -53.582031 17.28125 -54.40625 C 17.28125 -55.113281 17.472656 -55.582031 17.859375 -55.8125 C 18.242188 -56.050781 18.847656 -56.171875 19.671875 -56.171875 C 22.609375 -56.171875 24.941406 -55.953125 26.671875 -55.515625 C 28.410156 -55.078125 29.925781 -54.195312 31.21875 -52.875 C 32.507812 -51.550781 33.710938 -49.535156 34.828125 -46.828125 L 49.65625 -10.3125 C 50.53125 -8.082031 51.378906 -6.40625 52.203125 -5.28125 C 53.023438 -4.164062 54.257812 -3.582031 55.90625 -3.53125 L 56.4375 -3.53125 C 57.03125 -3.53125 57.441406 -3.425781 57.671875 -3.21875 C 57.910156 -3.007812 58.054688 -2.492188 58.109375 -1.671875 C 58.109375 -1.140625 57.976562 -0.679688 57.71875 -0.296875 C 57.457031 0.078125 57.0625 0.265625 56.53125 0.265625 C 52.769531 0.0859375 49.535156 0 46.828125 0 C 43.296875 0 39.648438 0.0859375 35.890625 0.265625 C 35.359375 0.265625 34.960938 0.078125 34.703125 -0.296875 C 34.441406 -0.679688 34.3125 -1.140625 34.3125 -1.671875 C 34.363281 -2.492188 34.503906 -3.007812 34.734375 -3.21875 C 34.972656 -3.425781 35.390625 -3.53125 35.984375 -3.53125 C 37.984375 -3.53125 39.394531 -3.71875 40.21875 -4.09375 C 41.039062 -4.476562 41.453125 -5.171875 41.453125 -6.171875 C 41.453125 -6.929688 41.097656 -8.3125 40.390625 -10.3125 L 37.390625 -17.640625 L 15.609375 -17.640625 C 14.140625 -13.992188 13.300781 -11.875 13.09375 -11.28125 C 12.882812 -10.695312 12.78125 -10.375 12.78125 -10.3125 C 12.082031 -8.082031 11.734375 -6.644531 11.734375 -6 C 11.734375 -5 12.171875 -4.335938 13.046875 -4.015625 C 13.929688 -3.691406 15.609375 -3.53125 18.078125 -3.53125 L 18.609375 -3.53125 C 19.191406 -3.53125 19.597656 -3.425781 19.828125 -3.21875 C 20.066406 -3.007812 20.21875 -2.492188 20.28125 -1.671875 C 20.28125 -1.140625 20.144531 -0.679688 19.875 -0.296875 C 19.613281 0.078125 19.222656 0.265625 18.703125 0.265625 C 14.929688 0.0859375 11.722656 0 9.078125 0 C 7.203125 0 4.351562 0.0859375 0.53125 0.265625 Z M 17.28125 -21.421875 L 35.796875 -21.421875 L 26.890625 -44.09375 L 26.625 -44.09375 Z M 17.28125 -21.421875 "/></g></g></g><g fill="#bf770a" fill-opacity="0.4"><g transform="translate(282.091792, 151.092346)"><g><path d="M 31.65625 1.765625 C 26.539062 1.765625 21.910156 0.691406 17.765625 -1.453125 C 13.617188 -3.597656 10.34375 -6.859375 7.9375 -11.234375 C 5.53125 -15.617188 4.328125 -21.015625 4.328125 -27.421875 C 4.328125 -33.359375 5.632812 -38.59375 8.25 -43.125 C 10.863281 -47.65625 14.492188 -51.164062 19.140625 -53.65625 C 23.785156 -56.15625 29.101562 -57.40625 35.09375 -57.40625 C 38.039062 -57.40625 40.953125 -56.960938 43.828125 -56.078125 C 46.710938 -55.203125 49.09375 -53.820312 50.96875 -51.9375 C 52.851562 -50.0625 53.796875 -47.738281 53.796875 -44.96875 C 53.796875 -42.382812 53.03125 -40.148438 51.5 -38.265625 C 49.96875 -36.390625 47.941406 -35.453125 45.421875 -35.453125 C 44.179688 -35.453125 42.988281 -35.742188 41.84375 -36.328125 C 40.695312 -36.921875 40.09375 -37.6875 40.03125 -38.625 C 40.03125 -38.6875 40.425781 -39.007812 41.21875 -39.59375 C 42.019531 -40.1875 42.757812 -40.976562 43.4375 -41.96875 C 44.113281 -42.96875 44.453125 -44.175781 44.453125 -45.59375 C 44.453125 -48.0625 43.476562 -50.054688 41.53125 -51.578125 C 39.59375 -53.109375 37.097656 -53.875 34.046875 -53.875 C 30.398438 -53.875 27.101562 -52.859375 24.15625 -50.828125 C 21.21875 -48.804688 18.894531 -45.835938 17.1875 -41.921875 C 15.488281 -38.015625 14.640625 -33.359375 14.640625 -27.953125 C 14.640625 -22.722656 15.476562 -18.195312 17.15625 -14.375 C 18.832031 -10.550781 21.179688 -7.625 24.203125 -5.59375 C 27.234375 -3.570312 30.75 -2.5625 34.75 -2.5625 C 36.625 -2.5625 38.265625 -2.660156 39.671875 -2.859375 C 41.085938 -3.066406 42.617188 -3.4375 44.265625 -3.96875 L 44.265625 -12.96875 C 44.265625 -15.019531 44.191406 -16.457031 44.046875 -17.28125 C 43.898438 -18.101562 43.429688 -18.71875 42.640625 -19.125 C 41.847656 -19.539062 40.507812 -19.75 38.625 -19.75 C 37.976562 -19.75 37.507812 -19.851562 37.21875 -20.0625 C 36.925781 -20.269531 36.75 -20.785156 36.6875 -21.609375 C 36.6875 -22.140625 36.847656 -22.59375 37.171875 -22.96875 C 37.492188 -23.351562 37.945312 -23.546875 38.53125 -23.546875 C 42.238281 -23.367188 45.472656 -23.28125 48.234375 -23.28125 C 50.878906 -23.28125 54.054688 -23.367188 57.765625 -23.546875 C 58.296875 -23.546875 58.707031 -23.351562 59 -22.96875 C 59.289062 -22.59375 59.4375 -22.140625 59.4375 -21.609375 C 59.375 -20.785156 59.195312 -20.269531 58.90625 -20.0625 C 58.613281 -19.851562 58.144531 -19.75 57.5 -19.75 C 55.738281 -19.75 54.472656 -19.515625 53.703125 -19.046875 C 52.941406 -18.578125 52.472656 -17.914062 52.296875 -17.0625 C 52.117188 -16.207031 52.03125 -14.84375 52.03125 -12.96875 L 52.03125 -2.5625 C 48.5625 -0.914062 45.382812 0.210938 42.5 0.828125 C 39.625 1.453125 36.007812 1.765625 31.65625 1.765625 Z M 31.65625 1.765625 "/></g></g></g><g fill="#bf770a" fill-opacity="0.4"><g transform="translate(343.11329, 151.092346)"><g><path d="M 32.28125 1.765625 C 26.695312 1.765625 21.769531 0.425781 17.5 -2.25 C 13.238281 -4.925781 9.945312 -8.46875 7.625 -12.875 C 5.300781 -17.28125 4.140625 -22.015625 4.140625 -27.078125 C 4.140625 -33.242188 5.535156 -38.617188 8.328125 -43.203125 C 11.117188 -47.796875 14.691406 -51.3125 19.046875 -53.75 C 23.398438 -56.1875 27.8125 -57.40625 32.28125 -57.40625 C 37.925781 -57.40625 42.90625 -56.066406 47.21875 -53.390625 C 51.539062 -50.722656 54.863281 -47.195312 57.1875 -42.8125 C 59.507812 -38.4375 60.671875 -33.71875 60.671875 -28.65625 C 60.671875 -22.488281 59.257812 -17.097656 56.4375 -12.484375 C 53.613281 -7.867188 50 -4.335938 45.59375 -1.890625 C 41.1875 0.546875 36.75 1.765625 32.28125 1.765625 Z M 32.1875 -2.109375 C 36.1875 -2.109375 39.519531 -3.300781 42.1875 -5.6875 C 44.863281 -8.070312 46.863281 -11.273438 48.1875 -15.296875 C 49.507812 -19.328125 50.171875 -23.78125 50.171875 -28.65625 C 50.171875 -33.1875 49.492188 -37.347656 48.140625 -41.140625 C 46.796875 -44.929688 44.769531 -47.957031 42.0625 -50.21875 C 39.363281 -52.488281 36.070312 -53.625 32.1875 -53.625 C 26.3125 -53.625 21.890625 -51.140625 18.921875 -46.171875 C 15.953125 -41.203125 14.46875 -34.925781 14.46875 -27.34375 C 14.46875 -22.75 15.128906 -18.539062 16.453125 -14.71875 C 17.773438 -10.90625 19.757812 -7.847656 22.40625 -5.546875 C 25.050781 -3.253906 28.3125 -2.109375 32.1875 -2.109375 Z M 32.1875 -2.109375 "/></g></g></g><g fill="#bf770a" fill-opacity="0.4"><g transform="translate(407.926565, 151.092346)"><g><path d="M 5.46875 0.265625 C 4.9375 0.265625 4.535156 0.078125 4.265625 -0.296875 C 4.003906 -0.679688 3.875 -1.140625 3.875 -1.671875 C 3.9375 -2.554688 4.113281 -3.085938 4.40625 -3.265625 C 4.695312 -3.441406 5.253906 -3.53125 6.078125 -3.53125 C 7.785156 -3.53125 9.035156 -3.835938 9.828125 -4.453125 C 10.617188 -5.066406 11.101562 -5.800781 11.28125 -6.65625 C 11.457031 -7.507812 11.578125 -8.726562 11.640625 -10.3125 L 11.8125 -45.328125 C 11.8125 -47.085938 11.617188 -48.421875 11.234375 -49.328125 C 10.859375 -50.242188 10.257812 -50.90625 9.4375 -51.3125 C 8.613281 -51.726562 7.4375 -52.085938 5.90625 -52.390625 C 4.90625 -52.554688 4.285156 -52.726562 4.046875 -52.90625 C 3.816406 -53.082031 3.703125 -53.582031 3.703125 -54.40625 C 3.703125 -55.113281 3.890625 -55.582031 4.265625 -55.8125 C 4.648438 -56.050781 5.253906 -56.171875 6.078125 -56.171875 C 9.722656 -56.171875 12.601562 -55.921875 14.71875 -55.421875 C 16.84375 -54.921875 18.710938 -54.023438 20.328125 -52.734375 C 21.941406 -51.441406 23.71875 -49.472656 25.65625 -46.828125 L 49.828125 -15.078125 L 50.09375 -15.078125 L 49.921875 -45.328125 C 49.859375 -46.910156 49.738281 -48.128906 49.5625 -48.984375 C 49.382812 -49.835938 48.898438 -50.570312 48.109375 -51.1875 C 47.316406 -51.8125 46.066406 -52.125 44.359375 -52.125 L 43.828125 -52.125 C 43.242188 -52.125 42.816406 -52.222656 42.546875 -52.421875 C 42.285156 -52.628906 42.125 -53.144531 42.0625 -53.96875 C 42.0625 -54.5 42.207031 -54.953125 42.5 -55.328125 C 42.800781 -55.710938 43.1875 -55.90625 43.65625 -55.90625 C 47.414062 -55.726562 50.238281 -55.640625 52.125 -55.640625 C 53.238281 -55.640625 55.382812 -55.703125 58.5625 -55.828125 L 60.40625 -55.90625 C 60.9375 -55.90625 61.332031 -55.710938 61.59375 -55.328125 C 61.863281 -54.953125 62 -54.5 62 -53.96875 C 61.9375 -53.082031 61.757812 -52.550781 61.46875 -52.375 C 61.175781 -52.207031 60.617188 -52.125 59.796875 -52.125 C 58.085938 -52.125 56.835938 -51.8125 56.046875 -51.1875 C 55.253906 -50.570312 54.769531 -49.835938 54.59375 -48.984375 C 54.414062 -48.128906 54.296875 -46.910156 54.234375 -45.328125 L 54.0625 -0.875 C 54 -0.113281 53.265625 0.265625 51.859375 0.265625 C 50.734375 0.265625 49.878906 -0.113281 49.296875 -0.875 L 16.046875 -45.328125 L 15.78125 -45.328125 L 15.96875 -10.3125 C 16.019531 -8.726562 16.132812 -7.507812 16.3125 -6.65625 C 16.488281 -5.800781 16.972656 -5.066406 17.765625 -4.453125 C 18.554688 -3.835938 19.804688 -3.53125 21.515625 -3.53125 L 22.046875 -3.53125 C 22.628906 -3.53125 23.050781 -3.425781 23.3125 -3.21875 C 23.582031 -3.007812 23.75 -2.492188 23.8125 -1.671875 C 23.8125 -1.140625 23.675781 -0.679688 23.40625 -0.296875 C 23.144531 0.078125 22.75 0.265625 22.21875 0.265625 C 18.457031 0.0859375 15.609375 0 13.671875 0 C 12.492188 0 10.4375 0.0546875 7.5 0.171875 Z M 5.46875 0.265625 "/></g></g></g><g fill="#bf770a" fill-opacity="0.4"><g transform="translate(472.916224, 151.092346)"><g><path d="M 5.296875 0.265625 C 4.816406 0.265625 4.445312 0.078125 4.1875 -0.296875 C 3.925781 -0.679688 3.796875 -1.140625 3.796875 -1.671875 C 3.847656 -2.554688 4.019531 -3.085938 4.3125 -3.265625 C 4.613281 -3.441406 5.175781 -3.53125 6 -3.53125 C 7.695312 -3.53125 8.957031 -3.835938 9.78125 -4.453125 C 10.601562 -5.066406 11.117188 -5.828125 11.328125 -6.734375 C 11.535156 -7.648438 11.671875 -8.84375 11.734375 -10.3125 L 11.734375 -45.328125 C 11.671875 -46.796875 11.535156 -47.984375 11.328125 -48.890625 C 11.117188 -49.804688 10.601562 -50.570312 9.78125 -51.1875 C 8.957031 -51.8125 7.695312 -52.125 6 -52.125 L 5.46875 -52.125 C 4.875 -52.125 4.457031 -52.222656 4.21875 -52.421875 C 3.988281 -52.628906 3.847656 -53.144531 3.796875 -53.96875 C 3.796875 -54.5 3.925781 -54.953125 4.1875 -55.328125 C 4.445312 -55.710938 4.816406 -55.90625 5.296875 -55.90625 C 9.109375 -55.726562 12.601562 -55.640625 15.78125 -55.640625 L 41.265625 -55.640625 C 42.796875 -55.640625 43.5625 -54.9375 43.5625 -53.53125 L 43.828125 -41.1875 C 43.828125 -40.65625 43.5625 -40.226562 43.03125 -39.90625 C 42.5 -39.582031 41.972656 -39.421875 41.453125 -39.421875 C 40.742188 -39.421875 40.109375 -39.550781 39.546875 -39.8125 C 38.992188 -40.082031 38.6875 -40.476562 38.625 -41 C 38.21875 -43.882812 37.734375 -46.078125 37.171875 -47.578125 C 36.609375 -49.078125 35.78125 -50.191406 34.6875 -50.921875 C 33.601562 -51.660156 32.066406 -52.0625 30.078125 -52.125 L 20.453125 -52.125 L 20.453125 -29.1875 L 36.25 -29.1875 C 36.71875 -29.132812 37.066406 -28.914062 37.296875 -28.53125 C 37.535156 -28.144531 37.65625 -27.6875 37.65625 -27.15625 C 37.65625 -26.6875 37.535156 -26.273438 37.296875 -25.921875 C 37.066406 -25.566406 36.71875 -25.390625 36.25 -25.390625 L 20.453125 -25.390625 L 20.453125 -10.3125 C 20.515625 -8.84375 20.648438 -7.648438 20.859375 -6.734375 C 21.066406 -5.828125 21.582031 -5.066406 22.40625 -4.453125 C 23.226562 -3.835938 24.488281 -3.53125 26.1875 -3.53125 L 26.71875 -3.53125 C 27.25 -3.53125 27.644531 -3.425781 27.90625 -3.21875 C 28.175781 -3.007812 28.335938 -2.492188 28.390625 -1.671875 C 28.390625 -1.140625 28.257812 -0.679688 28 -0.296875 C 27.738281 0.078125 27.34375 0.265625 26.8125 0.265625 C 23.050781 0.0859375 19.40625 0 15.875 0 C 12.632812 0 9.109375 0.0859375 5.296875 0.265625 Z M 5.296875 0.265625 "/></g></g></g><g fill="#bf770a" fill-opacity="0.4"><g transform="translate(519.211428, 151.092346)"><g><path d="M 5.296875 0.265625 C 4.816406 0.265625 4.445312 0.078125 4.1875 -0.296875 C 3.925781 -0.679688 3.796875 -1.140625 3.796875 -1.671875 C 3.847656 -2.554688 4.019531 -3.085938 4.3125 -3.265625 C 4.613281 -3.441406 5.175781 -3.53125 6 -3.53125 C 7.695312 -3.53125 8.957031 -3.835938 9.78125 -4.453125 C 10.601562 -5.066406 11.117188 -5.828125 11.328125 -6.734375 C 11.535156 -7.648438 11.671875 -8.84375 11.734375 -10.3125 L 11.734375 -45.328125 C 11.671875 -46.796875 11.535156 -47.984375 11.328125 -48.890625 C 11.117188 -49.804688 10.601562 -50.570312 9.78125 -51.1875 C 8.957031 -51.8125 7.695312 -52.125 6 -52.125 L 5.46875 -52.125 C 4.875 -52.125 4.457031 -52.222656 4.21875 -52.421875 C 3.988281 -52.628906 3.847656 -53.144531 3.796875 -53.96875 C 3.796875 -54.5 3.925781 -54.953125 4.1875 -55.328125 C 4.445312 -55.710938 4.816406 -55.90625 5.296875 -55.90625 C 9.171875 -55.726562 12.664062 -55.640625 15.78125 -55.640625 C 19.3125 -55.640625 22.988281 -55.726562 26.8125 -55.90625 C 27.34375 -55.90625 27.738281 -55.710938 28 -55.328125 C 28.257812 -54.953125 28.390625 -54.5 28.390625 -53.96875 C 28.335938 -53.082031 28.148438 -52.550781 27.828125 -52.375 C 27.503906 -52.207031 26.957031 -52.125 26.1875 -52.125 C 24.488281 -52.125 23.226562 -51.8125 22.40625 -51.1875 C 21.582031 -50.570312 21.066406 -49.804688 20.859375 -48.890625 C 20.648438 -47.984375 20.515625 -46.796875 20.453125 -45.328125 L 20.453125 -9 C 20.578125 -7.757812 20.726562 -6.800781 20.90625 -6.125 C 21.082031 -5.445312 21.609375 -4.828125 22.484375 -4.265625 C 23.367188 -3.710938 24.75 -3.46875 26.625 -3.53125 L 34.5625 -3.53125 C 36.625 -3.582031 38.179688 -3.914062 39.234375 -4.53125 C 40.296875 -5.15625 41.132812 -6.113281 41.75 -7.40625 C 42.375 -8.695312 43.125 -10.8125 44 -13.75 C 44.414062 -14.8125 45.414062 -15.222656 47 -14.984375 C 47.53125 -14.867188 48.03125 -14.632812 48.5 -14.28125 C 48.96875 -13.925781 49.175781 -13.488281 49.125 -12.96875 L 47.359375 -1.859375 C 47.179688 -1.085938 46.914062 -0.582031 46.5625 -0.34375 C 46.207031 -0.113281 45.617188 0 44.796875 0 L 15.875 0 C 12.695312 0 9.171875 0.0859375 5.296875 0.265625 Z M 5.296875 0.265625 "/></g></g></g><g fill="#bf770a" fill-opacity="0.4"><g transform="translate(569.562984, 151.092346)"><g><path d="M 16.75 0.265625 C 16.226562 0.265625 15.832031 0.078125 15.5625 -0.296875 C 15.300781 -0.679688 15.171875 -1.140625 15.171875 -1.671875 C 15.222656 -2.554688 15.410156 -3.085938 15.734375 -3.265625 C 16.054688 -3.441406 16.601562 -3.53125 17.375 -3.53125 C 19.082031 -3.53125 20.347656 -3.835938 21.171875 -4.453125 C 21.992188 -5.066406 22.503906 -5.828125 22.703125 -6.734375 C 22.910156 -7.648438 23.046875 -8.84375 23.109375 -10.3125 L 23.109375 -21.34375 C 23.109375 -22.28125 21.648438 -25.703125 18.734375 -31.609375 C 15.828125 -37.523438 13.460938 -42.128906 11.640625 -45.421875 C 10.460938 -47.535156 9.164062 -49.101562 7.75 -50.125 C 6.34375 -51.15625 4.613281 -51.878906 2.5625 -52.296875 C 2.320312 -52.359375 1.96875 -52.429688 1.5 -52.515625 C 1.03125 -52.597656 0.722656 -52.769531 0.578125 -53.03125 C 0.429688 -53.300781 0.359375 -53.734375 0.359375 -54.328125 C 0.359375 -55.023438 0.546875 -55.492188 0.921875 -55.734375 C 1.304688 -55.972656 1.910156 -56.09375 2.734375 -56.09375 C 7.429688 -56.09375 11.101562 -55.457031 13.75 -54.1875 C 16.394531 -52.925781 18.75 -50.503906 20.8125 -46.921875 C 21.8125 -44.972656 23.191406 -42.175781 24.953125 -38.53125 C 27.546875 -33.363281 29.253906 -30.015625 30.078125 -28.484375 L 30.34375 -28.484375 L 40.125 -47.796875 C 40.65625 -48.972656 40.921875 -49.828125 40.921875 -50.359375 C 40.921875 -51.054688 40.550781 -51.523438 39.8125 -51.765625 C 39.082031 -52.003906 37.894531 -52.125 36.25 -52.125 L 35.71875 -52.125 C 35.125 -52.125 34.707031 -52.222656 34.46875 -52.421875 C 34.238281 -52.628906 34.097656 -53.144531 34.046875 -53.96875 C 34.046875 -54.5 34.175781 -54.953125 34.4375 -55.328125 C 34.695312 -55.710938 35.066406 -55.90625 35.546875 -55.90625 C 39.359375 -55.726562 42.5625 -55.640625 45.15625 -55.640625 C 47.332031 -55.640625 50.300781 -55.726562 54.0625 -55.90625 C 54.59375 -55.90625 54.988281 -55.710938 55.25 -55.328125 C 55.507812 -54.953125 55.640625 -54.5 55.640625 -53.96875 C 55.585938 -53.144531 55.441406 -52.628906 55.203125 -52.421875 C 54.972656 -52.222656 54.5625 -52.125 53.96875 -52.125 C 51.5625 -52.125 49.625 -51.664062 48.15625 -50.75 C 46.6875 -49.84375 45.363281 -48.300781 44.1875 -46.125 L 34.21875 -27.34375 C 34.039062 -26.988281 33.6875 -26.265625 33.15625 -25.171875 C 32.625 -24.085938 32.269531 -23.085938 32.09375 -22.171875 C 31.914062 -21.265625 31.828125 -20.164062 31.828125 -18.875 L 31.828125 -10.3125 C 31.890625 -8.84375 32.023438 -7.648438 32.234375 -6.734375 C 32.441406 -5.828125 32.957031 -5.066406 33.78125 -4.453125 C 34.601562 -3.835938 35.863281 -3.53125 37.5625 -3.53125 L 38.09375 -3.53125 C 38.6875 -3.53125 39.097656 -3.425781 39.328125 -3.21875 C 39.566406 -3.007812 39.710938 -2.492188 39.765625 -1.671875 C 39.765625 -1.140625 39.632812 -0.679688 39.375 -0.296875 C 39.113281 0.078125 38.742188 0.265625 38.265625 0.265625 C 34.503906 0.0859375 30.976562 0 27.6875 0 C 24.21875 0 20.570312 0.0859375 16.75 0.265625 Z M 16.75 0.265625 "/></g></g></g><g fill="#bf770a" fill-opacity="1"><g transform="translate(97.246348, 147.195026)"><g><path d="M 5.296875 0.265625 C 4.816406 0.265625 4.445312 0.078125 4.1875 -0.296875 C 3.925781 -0.679688 3.796875 -1.140625 3.796875 -1.671875 C 3.847656 -2.554688 4.019531 -3.085938 4.3125 -3.265625 C 4.613281 -3.441406 5.175781 -3.53125 6 -3.53125 C 7.695312 -3.53125 8.957031 -3.835938 9.78125 -4.453125 C 10.601562 -5.066406 11.117188 -5.828125 11.328125 -6.734375 C 11.535156 -7.648438 11.671875 -8.84375 11.734375 -10.3125 L 11.734375 -45.328125 C 11.671875 -46.796875 11.535156 -47.984375 11.328125 -48.890625 C 11.117188 -49.804688 10.601562 -50.570312 9.78125 -51.1875 C 8.957031 -51.8125 7.695312 -52.125 6 -52.125 L 5.46875 -52.125 C 4.875 -52.125 4.457031 -52.222656 4.21875 -52.421875 C 3.988281 -52.628906 3.847656 -53.144531 3.796875 -53.96875 C 3.796875 -54.5 3.925781 -54.953125 4.1875 -55.328125 C 4.445312 -55.710938 4.816406 -55.90625 5.296875 -55.90625 C 9.171875 -55.726562 12.664062 -55.640625 15.78125 -55.640625 L 29.546875 -55.640625 C 35.191406 -55.640625 40.320312 -54.507812 44.9375 -52.25 C 49.550781 -49.988281 53.191406 -46.738281 55.859375 -42.5 C 58.535156 -38.269531 59.875 -33.273438 59.875 -27.515625 C 59.875 -21.515625 58.359375 -16.441406 55.328125 -12.296875 C 52.304688 -8.148438 48.367188 -5.0625 43.515625 -3.03125 C 38.671875 -1.007812 33.484375 0 27.953125 0 L 15.78125 0 C 12.664062 0 9.171875 0.0859375 5.296875 0.265625 Z M 29.28125 -3.265625 C 36.15625 -3.265625 41.191406 -5.394531 44.390625 -9.65625 C 47.597656 -13.914062 49.203125 -19.867188 49.203125 -27.515625 C 49.203125 -32.335938 48.332031 -36.644531 46.59375 -40.4375 C 44.863281 -44.226562 42.351562 -47.179688 39.0625 -49.296875 C 35.769531 -51.410156 31.863281 -52.46875 27.34375 -52.46875 L 20.453125 -52.390625 L 20.453125 -9.265625 C 20.453125 -6.972656 21.144531 -5.398438 22.53125 -4.546875 C 23.914062 -3.691406 26.164062 -3.265625 29.28125 -3.265625 Z M 29.28125 -3.265625 "/></g></g></g><g fill="#bf770a" fill-opacity="1"><g transform="translate(161.442374, 147.195026)"><g><path d="M 5.375 0.265625 C 4.84375 0.265625 4.445312 0.078125 4.1875 -0.296875 C 3.925781 -0.679688 3.796875 -1.140625 3.796875 -1.671875 C 3.847656 -2.554688 4.019531 -3.085938 4.3125 -3.265625 C 4.613281 -3.441406 5.175781 -3.53125 6 -3.53125 C 7.695312 -3.53125 8.957031 -3.835938 9.78125 -4.453125 C 10.601562 -5.066406 11.117188 -5.828125 11.328125 -6.734375 C 11.535156 -7.648438 11.671875 -8.84375 11.734375 -10.3125 L 11.734375 -45.234375 C 11.671875 -46.765625 11.535156 -47.96875 11.328125 -48.84375 C 11.117188 -49.726562 10.601562 -50.492188 9.78125 -51.140625 C 8.957031 -51.796875 7.695312 -52.125 6 -52.125 L 5.46875 -52.125 C 4.875 -52.125 4.457031 -52.222656 4.21875 -52.421875 C 3.988281 -52.628906 3.847656 -53.144531 3.796875 -53.96875 C 3.796875 -54.5 3.925781 -54.953125 4.1875 -55.328125 C 4.445312 -55.710938 4.84375 -55.90625 5.375 -55.90625 C 9.195312 -55.726562 12.695312 -55.640625 15.875 -55.640625 L 31.046875 -55.640625 C 35.566406 -55.585938 39.34375 -54.867188 42.375 -53.484375 C 45.40625 -52.097656 47.625 -50.332031 49.03125 -48.1875 C 50.445312 -46.039062 51.15625 -43.734375 51.15625 -41.265625 C 51.15625 -38.035156 49.875 -35.066406 47.3125 -32.359375 C 44.75 -29.660156 41.265625 -27.722656 36.859375 -26.546875 L 38.359375 -24.15625 C 40.828125 -20.164062 43.0625 -16.742188 45.0625 -13.890625 C 47.0625 -11.035156 49.238281 -8.375 51.59375 -5.90625 C 53.238281 -4.550781 55 -3.757812 56.875 -3.53125 C 57 -3.53125 57.265625 -3.515625 57.671875 -3.484375 C 58.085938 -3.453125 58.425781 -3.289062 58.6875 -3 C 58.945312 -2.707031 59.078125 -2.265625 59.078125 -1.671875 C 59.078125 -1.140625 58.945312 -0.679688 58.6875 -0.296875 C 58.425781 0.078125 58.03125 0.265625 57.5 0.265625 L 55.203125 0.171875 C 52.617188 0.0546875 50.738281 0 49.5625 0 C 47.207031 -0.46875 45.191406 -1.304688 43.515625 -2.515625 C 41.835938 -3.722656 40.175781 -5.441406 38.53125 -7.671875 C 36.832031 -9.898438 34.453125 -13.546875 31.390625 -18.609375 L 29.8125 -21.171875 C 28.925781 -22.515625 28.070312 -23.4375 27.25 -23.9375 C 26.425781 -24.4375 25.015625 -24.6875 23.015625 -24.6875 L 20.453125 -24.6875 L 20.453125 -10.3125 C 20.515625 -8.84375 20.648438 -7.648438 20.859375 -6.734375 C 21.066406 -5.828125 21.582031 -5.066406 22.40625 -4.453125 C 23.226562 -3.835938 24.488281 -3.53125 26.1875 -3.53125 L 26.71875 -3.53125 C 27.25 -3.53125 27.644531 -3.425781 27.90625 -3.21875 C 28.175781 -3.007812 28.335938 -2.492188 28.390625 -1.671875 C 28.390625 -1.140625 28.257812 -0.679688 28 -0.296875 C 27.738281 0.078125 27.34375 0.265625 26.8125 0.265625 C 23.050781 0.0859375 19.375 0 15.78125 0 C 12.664062 0 9.195312 0.0859375 5.375 0.265625 Z M 28.21875 -28.125 C 36.976562 -28.125 41.359375 -32.242188 41.359375 -40.484375 C 41.359375 -43.828125 40.210938 -46.644531 37.921875 -48.9375 C 35.628906 -51.238281 31.863281 -52.390625 26.625 -52.390625 C 24.925781 -52.390625 23.632812 -52.179688 22.75 -51.765625 C 21.863281 -51.359375 21.257812 -50.65625 20.9375 -49.65625 C 20.613281 -48.65625 20.453125 -47.125 20.453125 -45.0625 L 20.453125 -28.125 Z M 28.21875 -28.125 "/></g></g></g><g fill="#bf770a" fill-opacity="1"><g transform="translate(220.612055, 147.195026)"><g><path d="M 0.53125 0.265625 C 0 0.265625 -0.394531 0.078125 -0.65625 -0.296875 C -0.925781 -0.679688 -1.0625 -1.140625 -1.0625 -1.671875 C -1 -2.554688 -0.820312 -3.085938 -0.53125 -3.265625 C -0.238281 -3.441406 0.109375 -3.53125 0.515625 -3.53125 C 0.929688 -3.53125 1.203125 -3.53125 1.328125 -3.53125 C 3.085938 -3.53125 4.378906 -3.984375 5.203125 -4.890625 C 6.023438 -5.804688 6.6875 -6.835938 7.1875 -7.984375 C 7.6875 -9.128906 8.023438 -9.90625 8.203125 -10.3125 L 23.640625 -46.828125 C 23.984375 -47.710938 24.15625 -48.414062 24.15625 -48.9375 C 24.15625 -50 23.742188 -50.765625 22.921875 -51.234375 C 22.097656 -51.703125 20.953125 -52.085938 19.484375 -52.390625 C 18.484375 -52.554688 17.863281 -52.726562 17.625 -52.90625 C 17.394531 -53.082031 17.28125 -53.582031 17.28125 -54.40625 C 17.28125 -55.113281 17.472656 -55.582031 17.859375 -55.8125 C 18.242188 -56.050781 18.847656 -56.171875 19.671875 -56.171875 C 22.609375 -56.171875 24.941406 -55.953125 26.671875 -55.515625 C 28.410156 -55.078125 29.925781 -54.195312 31.21875 -52.875 C 32.507812 -51.550781 33.710938 -49.535156 34.828125 -46.828125 L 49.65625 -10.3125 C 50.53125 -8.082031 51.378906 -6.40625 52.203125 -5.28125 C 53.023438 -4.164062 54.257812 -3.582031 55.90625 -3.53125 L 56.4375 -3.53125 C 57.03125 -3.53125 57.441406 -3.425781 57.671875 -3.21875 C 57.910156 -3.007812 58.054688 -2.492188 58.109375 -1.671875 C 58.109375 -1.140625 57.976562 -0.679688 57.71875 -0.296875 C 57.457031 0.078125 57.0625 0.265625 56.53125 0.265625 C 52.769531 0.0859375 49.535156 0 46.828125 0 C 43.296875 0 39.648438 0.0859375 35.890625 0.265625 C 35.359375 0.265625 34.960938 0.078125 34.703125 -0.296875 C 34.441406 -0.679688 34.3125 -1.140625 34.3125 -1.671875 C 34.363281 -2.492188 34.503906 -3.007812 34.734375 -3.21875 C 34.972656 -3.425781 35.390625 -3.53125 35.984375 -3.53125 C 37.984375 -3.53125 39.394531 -3.71875 40.21875 -4.09375 C 41.039062 -4.476562 41.453125 -5.171875 41.453125 -6.171875 C 41.453125 -6.929688 41.097656 -8.3125 40.390625 -10.3125 L 37.390625 -17.640625 L 15.609375 -17.640625 C 14.140625 -13.992188 13.300781 -11.875 13.09375 -11.28125 C 12.882812 -10.695312 12.78125 -10.375 12.78125 -10.3125 C 12.082031 -8.082031 11.734375 -6.644531 11.734375 -6 C 11.734375 -5 12.171875 -4.335938 13.046875 -4.015625 C 13.929688 -3.691406 15.609375 -3.53125 18.078125 -3.53125 L 18.609375 -3.53125 C 19.191406 -3.53125 19.597656 -3.425781 19.828125 -3.21875 C 20.066406 -3.007812 20.21875 -2.492188 20.28125 -1.671875 C 20.28125 -1.140625 20.144531 -0.679688 19.875 -0.296875 C 19.613281 0.078125 19.222656 0.265625 18.703125 0.265625 C 14.929688 0.0859375 11.722656 0 9.078125 0 C 7.203125 0 4.351562 0.0859375 0.53125 0.265625 Z M 17.28125 -21.421875 L 35.796875 -21.421875 L 26.890625 -44.09375 L 26.625 -44.09375 Z M 17.28125 -21.421875 "/></g></g></g><g fill="#bf770a" fill-opacity="1"><g transform="translate(278.194471, 147.195026)"><g><path d="M 31.65625 1.765625 C 26.539062 1.765625 21.910156 0.691406 17.765625 -1.453125 C 13.617188 -3.597656 10.34375 -6.859375 7.9375 -11.234375 C 5.53125 -15.617188 4.328125 -21.015625 4.328125 -27.421875 C 4.328125 -33.359375 5.632812 -38.59375 8.25 -43.125 C 10.863281 -47.65625 14.492188 -51.164062 19.140625 -53.65625 C 23.785156 -56.15625 29.101562 -57.40625 35.09375 -57.40625 C 38.039062 -57.40625 40.953125 -56.960938 43.828125 -56.078125 C 46.710938 -55.203125 49.09375 -53.820312 50.96875 -51.9375 C 52.851562 -50.0625 53.796875 -47.738281 53.796875 -44.96875 C 53.796875 -42.382812 53.03125 -40.148438 51.5 -38.265625 C 49.96875 -36.390625 47.941406 -35.453125 45.421875 -35.453125 C 44.179688 -35.453125 42.988281 -35.742188 41.84375 -36.328125 C 40.695312 -36.921875 40.09375 -37.6875 40.03125 -38.625 C 40.03125 -38.6875 40.425781 -39.007812 41.21875 -39.59375 C 42.019531 -40.1875 42.757812 -40.976562 43.4375 -41.96875 C 44.113281 -42.96875 44.453125 -44.175781 44.453125 -45.59375 C 44.453125 -48.0625 43.476562 -50.054688 41.53125 -51.578125 C 39.59375 -53.109375 37.097656 -53.875 34.046875 -53.875 C 30.398438 -53.875 27.101562 -52.859375 24.15625 -50.828125 C 21.21875 -48.804688 18.894531 -45.835938 17.1875 -41.921875 C 15.488281 -38.015625 14.640625 -33.359375 14.640625 -27.953125 C 14.640625 -22.722656 15.476562 -18.195312 17.15625 -14.375 C 18.832031 -10.550781 21.179688 -7.625 24.203125 -5.59375 C 27.234375 -3.570312 30.75 -2.5625 34.75 -2.5625 C 36.625 -2.5625 38.265625 -2.660156 39.671875 -2.859375 C 41.085938 -3.066406 42.617188 -3.4375 44.265625 -3.96875 L 44.265625 -12.96875 C 44.265625 -15.019531 44.191406 -16.457031 44.046875 -17.28125 C 43.898438 -18.101562 43.429688 -18.71875 42.640625 -19.125 C 41.847656 -19.539062 40.507812 -19.75 38.625 -19.75 C 37.976562 -19.75 37.507812 -19.851562 37.21875 -20.0625 C 36.925781 -20.269531 36.75 -20.785156 36.6875 -21.609375 C 36.6875 -22.140625 36.847656 -22.59375 37.171875 -22.96875 C 37.492188 -23.351562 37.945312 -23.546875 38.53125 -23.546875 C 42.238281 -23.367188 45.472656 -23.28125 48.234375 -23.28125 C 50.878906 -23.28125 54.054688 -23.367188 57.765625 -23.546875 C 58.296875 -23.546875 58.707031 -23.351562 59 -22.96875 C 59.289062 -22.59375 59.4375 -22.140625 59.4375 -21.609375 C 59.375 -20.785156 59.195312 -20.269531 58.90625 -20.0625 C 58.613281 -19.851562 58.144531 -19.75 57.5 -19.75 C 55.738281 -19.75 54.472656 -19.515625 53.703125 -19.046875 C 52.941406 -18.578125 52.472656 -17.914062 52.296875 -17.0625 C 52.117188 -16.207031 52.03125 -14.84375 52.03125 -12.96875 L 52.03125 -2.5625 C 48.5625 -0.914062 45.382812 0.210938 42.5 0.828125 C 39.625 1.453125 36.007812 1.765625 31.65625 1.765625 Z M 31.65625 1.765625 "/></g></g></g><g fill="#bf770a" fill-opacity="1"><g transform="translate(339.215968, 147.195026)"><g><path d="M 32.28125 1.765625 C 26.695312 1.765625 21.769531 0.425781 17.5 -2.25 C 13.238281 -4.925781 9.945312 -8.46875 7.625 -12.875 C 5.300781 -17.28125 4.140625 -22.015625 4.140625 -27.078125 C 4.140625 -33.242188 5.535156 -38.617188 8.328125 -43.203125 C 11.117188 -47.796875 14.691406 -51.3125 19.046875 -53.75 C 23.398438 -56.1875 27.8125 -57.40625 32.28125 -57.40625 C 37.925781 -57.40625 42.90625 -56.066406 47.21875 -53.390625 C 51.539062 -50.722656 54.863281 -47.195312 57.1875 -42.8125 C 59.507812 -38.4375 60.671875 -33.71875 60.671875 -28.65625 C 60.671875 -22.488281 59.257812 -17.097656 56.4375 -12.484375 C 53.613281 -7.867188 50 -4.335938 45.59375 -1.890625 C 41.1875 0.546875 36.75 1.765625 32.28125 1.765625 Z M 32.1875 -2.109375 C 36.1875 -2.109375 39.519531 -3.300781 42.1875 -5.6875 C 44.863281 -8.070312 46.863281 -11.273438 48.1875 -15.296875 C 49.507812 -19.328125 50.171875 -23.78125 50.171875 -28.65625 C 50.171875 -33.1875 49.492188 -37.347656 48.140625 -41.140625 C 46.796875 -44.929688 44.769531 -47.957031 42.0625 -50.21875 C 39.363281 -52.488281 36.070312 -53.625 32.1875 -53.625 C 26.3125 -53.625 21.890625 -51.140625 18.921875 -46.171875 C 15.953125 -41.203125 14.46875 -34.925781 14.46875 -27.34375 C 14.46875 -22.75 15.128906 -18.539062 16.453125 -14.71875 C 17.773438 -10.90625 19.757812 -7.847656 22.40625 -5.546875 C 25.050781 -3.253906 28.3125 -2.109375 32.1875 -2.109375 Z M 32.1875 -2.109375 "/></g></g></g><g fill="#bf770a" fill-opacity="1"><g transform="translate(404.029244, 147.195026)"><g><path d="M 5.46875 0.265625 C 4.9375 0.265625 4.535156 0.078125 4.265625 -0.296875 C 4.003906 -0.679688 3.875 -1.140625 3.875 -1.671875 C 3.9375 -2.554688 4.113281 -3.085938 4.40625 -3.265625 C 4.695312 -3.441406 5.253906 -3.53125 6.078125 -3.53125 C 7.785156 -3.53125 9.035156 -3.835938 9.828125 -4.453125 C 10.617188 -5.066406 11.101562 -5.800781 11.28125 -6.65625 C 11.457031 -7.507812 11.578125 -8.726562 11.640625 -10.3125 L 11.8125 -45.328125 C 11.8125 -47.085938 11.617188 -48.421875 11.234375 -49.328125 C 10.859375 -50.242188 10.257812 -50.90625 9.4375 -51.3125 C 8.613281 -51.726562 7.4375 -52.085938 5.90625 -52.390625 C 4.90625 -52.554688 4.285156 -52.726562 4.046875 -52.90625 C 3.816406 -53.082031 3.703125 -53.582031 3.703125 -54.40625 C 3.703125 -55.113281 3.890625 -55.582031 4.265625 -55.8125 C 4.648438 -56.050781 5.253906 -56.171875 6.078125 -56.171875 C 9.722656 -56.171875 12.601562 -55.921875 14.71875 -55.421875 C 16.84375 -54.921875 18.710938 -54.023438 20.328125 -52.734375 C 21.941406 -51.441406 23.71875 -49.472656 25.65625 -46.828125 L 49.828125 -15.078125 L 50.09375 -15.078125 L 49.921875 -45.328125 C 49.859375 -46.910156 49.738281 -48.128906 49.5625 -48.984375 C 49.382812 -49.835938 48.898438 -50.570312 48.109375 -51.1875 C 47.316406 -51.8125 46.066406 -52.125 44.359375 -52.125 L 43.828125 -52.125 C 43.242188 -52.125 42.816406 -52.222656 42.546875 -52.421875 C 42.285156 -52.628906 42.125 -53.144531 42.0625 -53.96875 C 42.0625 -54.5 42.207031 -54.953125 42.5 -55.328125 C 42.800781 -55.710938 43.1875 -55.90625 43.65625 -55.90625 C 47.414062 -55.726562 50.238281 -55.640625 52.125 -55.640625 C 53.238281 -55.640625 55.382812 -55.703125 58.5625 -55.828125 L 60.40625 -55.90625 C 60.9375 -55.90625 61.332031 -55.710938 61.59375 -55.328125 C 61.863281 -54.953125 62 -54.5 62 -53.96875 C 61.9375 -53.082031 61.757812 -52.550781 61.46875 -52.375 C 61.175781 -52.207031 60.617188 -52.125 59.796875 -52.125 C 58.085938 -52.125 56.835938 -51.8125 56.046875 -51.1875 C 55.253906 -50.570312 54.769531 -49.835938 54.59375 -48.984375 C 54.414062 -48.128906 54.296875 -46.910156 54.234375 -45.328125 L 54.0625 -0.875 C 54 -0.113281 53.265625 0.265625 51.859375 0.265625 C 50.734375 0.265625 49.878906 -0.113281 49.296875 -0.875 L 16.046875 -45.328125 L 15.78125 -45.328125 L 15.96875 -10.3125 C 16.019531 -8.726562 16.132812 -7.507812 16.3125 -6.65625 C 16.488281 -5.800781 16.972656 -5.066406 17.765625 -4.453125 C 18.554688 -3.835938 19.804688 -3.53125 21.515625 -3.53125 L 22.046875 -3.53125 C 22.628906 -3.53125 23.050781 -3.425781 23.3125 -3.21875 C 23.582031 -3.007812 23.75 -2.492188 23.8125 -1.671875 C 23.8125 -1.140625 23.675781 -0.679688 23.40625 -0.296875 C 23.144531 0.078125 22.75 0.265625 22.21875 0.265625 C 18.457031 0.0859375 15.609375 0 13.671875 0 C 12.492188 0 10.4375 0.0546875 7.5 0.171875 Z M 5.46875 0.265625 "/></g></g></g><g fill="#bf770a" fill-opacity="1"><g transform="translate(469.018903, 147.195026)"><g><path d="M 5.296875 0.265625 C 4.816406 0.265625 4.445312 0.078125 4.1875 -0.296875 C 3.925781 -0.679688 3.796875 -1.140625 3.796875 -1.671875 C 3.847656 -2.554688 4.019531 -3.085938 4.3125 -3.265625 C 4.613281 -3.441406 5.175781 -3.53125 6 -3.53125 C 7.695312 -3.53125 8.957031 -3.835938 9.78125 -4.453125 C 10.601562 -5.066406 11.117188 -5.828125 11.328125 -6.734375 C 11.535156 -7.648438 11.671875 -8.84375 11.734375 -10.3125 L 11.734375 -45.328125 C 11.671875 -46.796875 11.535156 -47.984375 11.328125 -48.890625 C 11.117188 -49.804688 10.601562 -50.570312 9.78125 -51.1875 C 8.957031 -51.8125 7.695312 -52.125 6 -52.125 L 5.46875 -52.125 C 4.875 -52.125 4.457031 -52.222656 4.21875 -52.421875 C 3.988281 -52.628906 3.847656 -53.144531 3.796875 -53.96875 C 3.796875 -54.5 3.925781 -54.953125 4.1875 -55.328125 C 4.445312 -55.710938 4.816406 -55.90625 5.296875 -55.90625 C 9.109375 -55.726562 12.601562 -55.640625 15.78125 -55.640625 L 41.265625 -55.640625 C 42.796875 -55.640625 43.5625 -54.9375 43.5625 -53.53125 L 43.828125 -41.1875 C 43.828125 -40.65625 43.5625 -40.226562 43.03125 -39.90625 C 42.5 -39.582031 41.972656 -39.421875 41.453125 -39.421875 C 40.742188 -39.421875 40.109375 -39.550781 39.546875 -39.8125 C 38.992188 -40.082031 38.6875 -40.476562 38.625 -41 C 38.21875 -43.882812 37.734375 -46.078125 37.171875 -47.578125 C 36.609375 -49.078125 35.78125 -50.191406 34.6875 -50.921875 C 33.601562 -51.660156 32.066406 -52.0625 30.078125 -52.125 L 20.453125 -52.125 L 20.453125 -29.1875 L 36.25 -29.1875 C 36.71875 -29.132812 37.066406 -28.914062 37.296875 -28.53125 C 37.535156 -28.144531 37.65625 -27.6875 37.65625 -27.15625 C 37.65625 -26.6875 37.535156 -26.273438 37.296875 -25.921875 C 37.066406 -25.566406 36.71875 -25.390625 36.25 -25.390625 L 20.453125 -25.390625 L 20.453125 -10.3125 C 20.515625 -8.84375 20.648438 -7.648438 20.859375 -6.734375 C 21.066406 -5.828125 21.582031 -5.066406 22.40625 -4.453125 C 23.226562 -3.835938 24.488281 -3.53125 26.1875 -3.53125 L 26.71875 -3.53125 C 27.25 -3.53125 27.644531 -3.425781 27.90625 -3.21875 C 28.175781 -3.007812 28.335938 -2.492188 28.390625 -1.671875 C 28.390625 -1.140625 28.257812 -0.679688 28 -0.296875 C 27.738281 0.078125 27.34375 0.265625 26.8125 0.265625 C 23.050781 0.0859375 19.40625 0 15.875 0 C 12.632812 0 9.109375 0.0859375 5.296875 0.265625 Z M 5.296875 0.265625 "/></g></g></g><g fill="#bf770a" fill-opacity="1"><g transform="translate(515.314106, 147.195026)"><g><path d="M 5.296875 0.265625 C 4.816406 0.265625 4.445312 0.078125 4.1875 -0.296875 C 3.925781 -0.679688 3.796875 -1.140625 3.796875 -1.671875 C 3.847656 -2.554688 4.019531 -3.085938 4.3125 -3.265625 C 4.613281 -3.441406 5.175781 -3.53125 6 -3.53125 C 7.695312 -3.53125 8.957031 -3.835938 9.78125 -4.453125 C 10.601562 -5.066406 11.117188 -5.828125 11.328125 -6.734375 C 11.535156 -7.648438 11.671875 -8.84375 11.734375 -10.3125 L 11.734375 -45.328125 C 11.671875 -46.796875 11.535156 -47.984375 11.328125 -48.890625 C 11.117188 -49.804688 10.601562 -50.570312 9.78125 -51.1875 C 8.957031 -51.8125 7.695312 -52.125 6 -52.125 L 5.46875 -52.125 C 4.875 -52.125 4.457031 -52.222656 4.21875 -52.421875 C 3.988281 -52.628906 3.847656 -53.144531 3.796875 -53.96875 C 3.796875 -54.5 3.925781 -54.953125 4.1875 -55.328125 C 4.445312 -55.710938 4.816406 -55.90625 5.296875 -55.90625 C 9.171875 -55.726562 12.664062 -55.640625 15.78125 -55.640625 C 19.3125 -55.640625 22.988281 -55.726562 26.8125 -55.90625 C 27.34375 -55.90625 27.738281 -55.710938 28 -55.328125 C 28.257812 -54.953125 28.390625 -54.5 28.390625 -53.96875 C 28.335938 -53.082031 28.148438 -52.550781 27.828125 -52.375 C 27.503906 -52.207031 26.957031 -52.125 26.1875 -52.125 C 24.488281 -52.125 23.226562 -51.8125 22.40625 -51.1875 C 21.582031 -50.570312 21.066406 -49.804688 20.859375 -48.890625 C 20.648438 -47.984375 20.515625 -46.796875 20.453125 -45.328125 L 20.453125 -9 C 20.578125 -7.757812 20.726562 -6.800781 20.90625 -6.125 C 21.082031 -5.445312 21.609375 -4.828125 22.484375 -4.265625 C 23.367188 -3.710938 24.75 -3.46875 26.625 -3.53125 L 34.5625 -3.53125 C 36.625 -3.582031 38.179688 -3.914062 39.234375 -4.53125 C 40.296875 -5.15625 41.132812 -6.113281 41.75 -7.40625 C 42.375 -8.695312 43.125 -10.8125 44 -13.75 C 44.414062 -14.8125 45.414062 -15.222656 47 -14.984375 C 47.53125 -14.867188 48.03125 -14.632812 48.5 -14.28125 C 48.96875 -13.925781 49.175781 -13.488281 49.125 -12.96875 L 47.359375 -1.859375 C 47.179688 -1.085938 46.914062 -0.582031 46.5625 -0.34375 C 46.207031 -0.113281 45.617188 0 44.796875 0 L 15.875 0 C 12.695312 0 9.171875 0.0859375 5.296875 0.265625 Z M 5.296875 0.265625 "/></g></g></g><g fill="#bf770a" fill-opacity="1"><g transform="translate(565.665663, 147.195026)"><g><path d="M 16.75 0.265625 C 16.226562 0.265625 15.832031 0.078125 15.5625 -0.296875 C 15.300781 -0.679688 15.171875 -1.140625 15.171875 -1.671875 C 15.222656 -2.554688 15.410156 -3.085938 15.734375 -3.265625 C 16.054688 -3.441406 16.601562 -3.53125 17.375 -3.53125 C 19.082031 -3.53125 20.347656 -3.835938 21.171875 -4.453125 C 21.992188 -5.066406 22.503906 -5.828125 22.703125 -6.734375 C 22.910156 -7.648438 23.046875 -8.84375 23.109375 -10.3125 L 23.109375 -21.34375 C 23.109375 -22.28125 21.648438 -25.703125 18.734375 -31.609375 C 15.828125 -37.523438 13.460938 -42.128906 11.640625 -45.421875 C 10.460938 -47.535156 9.164062 -49.101562 7.75 -50.125 C 6.34375 -51.15625 4.613281 -51.878906 2.5625 -52.296875 C 2.320312 -52.359375 1.96875 -52.429688 1.5 -52.515625 C 1.03125 -52.597656 0.722656 -52.769531 0.578125 -53.03125 C 0.429688 -53.300781 0.359375 -53.734375 0.359375 -54.328125 C 0.359375 -55.023438 0.546875 -55.492188 0.921875 -55.734375 C 1.304688 -55.972656 1.910156 -56.09375 2.734375 -56.09375 C 7.429688 -56.09375 11.101562 -55.457031 13.75 -54.1875 C 16.394531 -52.925781 18.75 -50.503906 20.8125 -46.921875 C 21.8125 -44.972656 23.191406 -42.175781 24.953125 -38.53125 C 27.546875 -33.363281 29.253906 -30.015625 30.078125 -28.484375 L 30.34375 -28.484375 L 40.125 -47.796875 C 40.65625 -48.972656 40.921875 -49.828125 40.921875 -50.359375 C 40.921875 -51.054688 40.550781 -51.523438 39.8125 -51.765625 C 39.082031 -52.003906 37.894531 -52.125 36.25 -52.125 L 35.71875 -52.125 C 35.125 -52.125 34.707031 -52.222656 34.46875 -52.421875 C 34.238281 -52.628906 34.097656 -53.144531 34.046875 -53.96875 C 34.046875 -54.5 34.175781 -54.953125 34.4375 -55.328125 C 34.695312 -55.710938 35.066406 -55.90625 35.546875 -55.90625 C 39.359375 -55.726562 42.5625 -55.640625 45.15625 -55.640625 C 47.332031 -55.640625 50.300781 -55.726562 54.0625 -55.90625 C 54.59375 -55.90625 54.988281 -55.710938 55.25 -55.328125 C 55.507812 -54.953125 55.640625 -54.5 55.640625 -53.96875 C 55.585938 -53.144531 55.441406 -52.628906 55.203125 -52.421875 C 54.972656 -52.222656 54.5625 -52.125 53.96875 -52.125 C 51.5625 -52.125 49.625 -51.664062 48.15625 -50.75 C 46.6875 -49.84375 45.363281 -48.300781 44.1875 -46.125 L 34.21875 -27.34375 C 34.039062 -26.988281 33.6875 -26.265625 33.15625 -25.171875 C 32.625 -24.085938 32.269531 -23.085938 32.09375 -22.171875 C 31.914062 -21.265625 31.828125 -20.164062 31.828125 -18.875 L 31.828125 -10.3125 C 31.890625 -8.84375 32.023438 -7.648438 32.234375 -6.734375 C 32.441406 -5.828125 32.957031 -5.066406 33.78125 -4.453125 C 34.601562 -3.835938 35.863281 -3.53125 37.5625 -3.53125 L 38.09375 -3.53125 C 38.6875 -3.53125 39.097656 -3.425781 39.328125 -3.21875 C 39.566406 -3.007812 39.710938 -2.492188 39.765625 -1.671875 C 39.765625 -1.140625 39.632812 -0.679688 39.375 -0.296875 C 39.113281 0.078125 38.742188 0.265625 38.265625 0.265625 C 34.503906 0.0859375 30.976562 0 27.6875 0 C 24.21875 0 20.570312 0.0859375 16.75 0.265625 Z M 16.75 0.265625 "/></g></g></g><g fill="#bf770a" fill-opacity="0.4"><g transform="translate(256.436694, 228.12535)"><g><path d="M 31.578125 1.765625 C 26.578125 1.765625 22.003906 0.578125 17.859375 -1.796875 C 13.710938 -4.179688 10.421875 -7.578125 7.984375 -11.984375 C 5.546875 -16.398438 4.328125 -21.546875 4.328125 -27.421875 C 4.328125 -33.359375 5.5 -38.59375 7.84375 -43.125 C 10.195312 -47.65625 13.546875 -51.164062 17.890625 -53.65625 C 22.242188 -56.15625 27.332031 -57.40625 33.15625 -57.40625 C 38.21875 -57.40625 42.71875 -56.390625 46.65625 -54.359375 C 50.59375 -52.335938 52.5625 -49.207031 52.5625 -44.96875 C 52.613281 -42.320312 51.816406 -40.070312 50.171875 -38.21875 C 48.523438 -36.375 46.320312 -35.453125 43.5625 -35.453125 C 42.507812 -35.453125 41.613281 -35.640625 40.875 -36.015625 C 40.132812 -36.398438 39.585938 -36.859375 39.234375 -37.390625 C 38.890625 -37.921875 38.742188 -38.332031 38.796875 -38.625 C 38.796875 -38.738281 39.207031 -39.0625 40.03125 -39.59375 C 40.851562 -40.125 41.585938 -40.859375 42.234375 -41.796875 C 42.890625 -42.742188 43.21875 -43.890625 43.21875 -45.234375 C 43.21875 -47.878906 42.316406 -49.976562 40.515625 -51.53125 C 38.722656 -53.09375 36.238281 -53.875 33.0625 -53.875 C 29.476562 -53.875 26.289062 -52.859375 23.5 -50.828125 C 20.707031 -48.804688 18.53125 -45.835938 16.96875 -41.921875 C 15.414062 -38.015625 14.640625 -33.359375 14.640625 -27.953125 C 14.640625 -23.253906 15.476562 -18.976562 17.15625 -15.125 C 18.832031 -11.269531 21.195312 -8.210938 24.25 -5.953125 C 27.3125 -3.691406 30.8125 -2.5625 34.75 -2.5625 C 37.925781 -2.5625 40.644531 -3.222656 42.90625 -4.546875 C 45.164062 -5.867188 47.207031 -8 49.03125 -10.9375 C 49.320312 -11.46875 49.734375 -11.734375 50.265625 -11.734375 C 50.734375 -11.734375 51.265625 -11.554688 51.859375 -11.203125 C 52.796875 -10.554688 53.265625 -9.910156 53.265625 -9.265625 C 53.265625 -8.910156 53.144531 -8.613281 52.90625 -8.375 C 50.675781 -5.550781 48.578125 -3.421875 46.609375 -1.984375 C 44.640625 -0.546875 42.507812 0.4375 40.21875 0.96875 C 37.925781 1.5 35.046875 1.765625 31.578125 1.765625 Z M 31.578125 1.765625 "/></g></g></g><g fill="#bf770a" fill-opacity="0.4"><g transform="translate(312.784577, 228.12535)"><g><path d="M 0.53125 0.265625 C 0 0.265625 -0.394531 0.078125 -0.65625 -0.296875 C -0.925781 -0.679688 -1.0625 -1.140625 -1.0625 -1.671875 C -1 -2.554688 -0.820312 -3.085938 -0.53125 -3.265625 C -0.238281 -3.441406 0.109375 -3.53125 0.515625 -3.53125 C 0.929688 -3.53125 1.203125 -3.53125 1.328125 -3.53125 C 3.085938 -3.53125 4.378906 -3.984375 5.203125 -4.890625 C 6.023438 -5.804688 6.6875 -6.835938 7.1875 -7.984375 C 7.6875 -9.128906 8.023438 -9.90625 8.203125 -10.3125 L 23.640625 -46.828125 C 23.984375 -47.710938 24.15625 -48.414062 24.15625 -48.9375 C 24.15625 -50 23.742188 -50.765625 22.921875 -51.234375 C 22.097656 -51.703125 20.953125 -52.085938 19.484375 -52.390625 C 18.484375 -52.554688 17.863281 -52.726562 17.625 -52.90625 C 17.394531 -53.082031 17.28125 -53.582031 17.28125 -54.40625 C 17.28125 -55.113281 17.472656 -55.582031 17.859375 -55.8125 C 18.242188 -56.050781 18.847656 -56.171875 19.671875 -56.171875 C 22.609375 -56.171875 24.941406 -55.953125 26.671875 -55.515625 C 28.410156 -55.078125 29.925781 -54.195312 31.21875 -52.875 C 32.507812 -51.550781 33.710938 -49.535156 34.828125 -46.828125 L 49.65625 -10.3125 C 50.53125 -8.082031 51.378906 -6.40625 52.203125 -5.28125 C 53.023438 -4.164062 54.257812 -3.582031 55.90625 -3.53125 L 56.4375 -3.53125 C 57.03125 -3.53125 57.441406 -3.425781 57.671875 -3.21875 C 57.910156 -3.007812 58.054688 -2.492188 58.109375 -1.671875 C 58.109375 -1.140625 57.976562 -0.679688 57.71875 -0.296875 C 57.457031 0.078125 57.0625 0.265625 56.53125 0.265625 C 52.769531 0.0859375 49.535156 0 46.828125 0 C 43.296875 0 39.648438 0.0859375 35.890625 0.265625 C 35.359375 0.265625 34.960938 0.078125 34.703125 -0.296875 C 34.441406 -0.679688 34.3125 -1.140625 34.3125 -1.671875 C 34.363281 -2.492188 34.503906 -3.007812 34.734375 -3.21875 C 34.972656 -3.425781 35.390625 -3.53125 35.984375 -3.53125 C 37.984375 -3.53125 39.394531 -3.71875 40.21875 -4.09375 C 41.039062 -4.476562 41.453125 -5.171875 41.453125 -6.171875 C 41.453125 -6.929688 41.097656 -8.3125 40.390625 -10.3125 L 37.390625 -17.640625 L 15.609375 -17.640625 C 14.140625 -13.992188 13.300781 -11.875 13.09375 -11.28125 C 12.882812 -10.695312 12.78125 -10.375 12.78125 -10.3125 C 12.082031 -8.082031 11.734375 -6.644531 11.734375 -6 C 11.734375 -5 12.171875 -4.335938 13.046875 -4.015625 C 13.929688 -3.691406 15.609375 -3.53125 18.078125 -3.53125 L 18.609375 -3.53125 C 19.191406 -3.53125 19.597656 -3.425781 19.828125 -3.21875 C 20.066406 -3.007812 20.21875 -2.492188 20.28125 -1.671875 C 20.28125 -1.140625 20.144531 -0.679688 19.875 -0.296875 C 19.613281 0.078125 19.222656 0.265625 18.703125 0.265625 C 14.929688 0.0859375 11.722656 0 9.078125 0 C 7.203125 0 4.351562 0.0859375 0.53125 0.265625 Z M 17.28125 -21.421875 L 35.796875 -21.421875 L 26.890625 -44.09375 L 26.625 -44.09375 Z M 17.28125 -21.421875 "/></g></g></g><g fill="#bf770a" fill-opacity="0.4"><g transform="translate(370.366993, 228.12535)"><g><path d="M 5.296875 0.265625 C 4.816406 0.265625 4.445312 0.078125 4.1875 -0.296875 C 3.925781 -0.679688 3.796875 -1.140625 3.796875 -1.671875 C 3.847656 -2.554688 4.019531 -3.085938 4.3125 -3.265625 C 4.613281 -3.441406 5.175781 -3.53125 6 -3.53125 C 7.695312 -3.53125 8.957031 -3.835938 9.78125 -4.453125 C 10.601562 -5.066406 11.117188 -5.828125 11.328125 -6.734375 C 11.535156 -7.648438 11.671875 -8.84375 11.734375 -10.3125 L 11.734375 -45.328125 C 11.671875 -46.796875 11.535156 -47.984375 11.328125 -48.890625 C 11.117188 -49.804688 10.601562 -50.570312 9.78125 -51.1875 C 8.957031 -51.8125 7.695312 -52.125 6 -52.125 L 5.46875 -52.125 C 4.875 -52.125 4.457031 -52.222656 4.21875 -52.421875 C 3.988281 -52.628906 3.847656 -53.144531 3.796875 -53.96875 C 3.796875 -54.5 3.925781 -54.953125 4.1875 -55.328125 C 4.445312 -55.710938 4.816406 -55.90625 5.296875 -55.90625 C 9.109375 -55.726562 12.601562 -55.640625 15.78125 -55.640625 L 41.265625 -55.640625 C 42.796875 -55.640625 43.5625 -54.9375 43.5625 -53.53125 L 43.828125 -41.1875 C 43.828125 -40.65625 43.5625 -40.226562 43.03125 -39.90625 C 42.5 -39.582031 41.972656 -39.421875 41.453125 -39.421875 C 40.742188 -39.421875 40.109375 -39.550781 39.546875 -39.8125 C 38.992188 -40.082031 38.6875 -40.476562 38.625 -41 C 38.21875 -43.882812 37.734375 -46.078125 37.171875 -47.578125 C 36.609375 -49.078125 35.78125 -50.191406 34.6875 -50.921875 C 33.601562 -51.660156 32.066406 -52.0625 30.078125 -52.125 L 20.453125 -52.125 L 20.453125 -29.1875 L 36.25 -29.1875 C 36.71875 -29.132812 37.066406 -28.914062 37.296875 -28.53125 C 37.535156 -28.144531 37.65625 -27.6875 37.65625 -27.15625 C 37.65625 -26.6875 37.535156 -26.273438 37.296875 -25.921875 C 37.066406 -25.566406 36.71875 -25.390625 36.25 -25.390625 L 20.453125 -25.390625 L 20.453125 -10.3125 C 20.515625 -8.84375 20.648438 -7.648438 20.859375 -6.734375 C 21.066406 -5.828125 21.582031 -5.066406 22.40625 -4.453125 C 23.226562 -3.835938 24.488281 -3.53125 26.1875 -3.53125 L 26.71875 -3.53125 C 27.25 -3.53125 27.644531 -3.425781 27.90625 -3.21875 C 28.175781 -3.007812 28.335938 -2.492188 28.390625 -1.671875 C 28.390625 -1.140625 28.257812 -0.679688 28 -0.296875 C 27.738281 0.078125 27.34375 0.265625 26.8125 0.265625 C 23.050781 0.0859375 19.40625 0 15.875 0 C 12.632812 0 9.109375 0.0859375 5.296875 0.265625 Z M 5.296875 0.265625 "/></g></g></g><g fill="#bf770a" fill-opacity="0.4"><g transform="translate(416.662196, 228.12535)"><g><path d="M 5.296875 0.265625 C 4.816406 0.265625 4.445312 0.078125 4.1875 -0.296875 C 3.925781 -0.679688 3.796875 -1.140625 3.796875 -1.671875 C 3.847656 -2.554688 4.019531 -3.085938 4.3125 -3.265625 C 4.613281 -3.441406 5.175781 -3.53125 6 -3.53125 C 7.695312 -3.53125 8.957031 -3.835938 9.78125 -4.453125 C 10.601562 -5.066406 11.117188 -5.828125 11.328125 -6.734375 C 11.535156 -7.648438 11.671875 -8.84375 11.734375 -10.3125 L 11.734375 -45.328125 C 11.671875 -46.796875 11.535156 -47.984375 11.328125 -48.890625 C 11.117188 -49.804688 10.601562 -50.570312 9.78125 -51.1875 C 8.957031 -51.8125 7.695312 -52.125 6 -52.125 L 5.46875 -52.125 C 4.875 -52.125 4.457031 -52.222656 4.21875 -52.421875 C 3.988281 -52.628906 3.847656 -53.144531 3.796875 -53.96875 C 3.796875 -54.5 3.925781 -54.953125 4.1875 -55.328125 C 4.445312 -55.710938 4.816406 -55.90625 5.296875 -55.90625 C 9.171875 -55.726562 12.664062 -55.640625 15.78125 -55.640625 L 43.46875 -55.640625 C 45 -55.640625 45.765625 -54.9375 45.765625 -53.53125 L 46.03125 -41.1875 C 46.03125 -40.65625 45.765625 -40.226562 45.234375 -39.90625 C 44.710938 -39.582031 44.1875 -39.421875 43.65625 -39.421875 C 42.945312 -39.421875 42.328125 -39.550781 41.796875 -39.8125 C 41.265625 -40.082031 40.972656 -40.476562 40.921875 -41 C 40.453125 -43.882812 39.9375 -46.078125 39.375 -47.578125 C 38.8125 -49.078125 37.988281 -50.191406 36.90625 -50.921875 C 35.820312 -51.660156 34.28125 -52.0625 32.28125 -52.125 L 20.453125 -52.125 L 20.453125 -29.71875 L 36.421875 -29.71875 C 36.828125 -29.65625 37.148438 -29.429688 37.390625 -29.046875 C 37.628906 -28.671875 37.75 -28.21875 37.75 -27.6875 C 37.75 -27.21875 37.628906 -26.804688 37.390625 -26.453125 C 37.148438 -26.097656 36.828125 -25.921875 36.421875 -25.921875 L 20.453125 -25.921875 L 20.453125 -9.265625 C 20.578125 -8.023438 20.726562 -7.035156 20.90625 -6.296875 C 21.082031 -5.566406 21.609375 -4.90625 22.484375 -4.3125 C 23.367188 -3.726562 24.75 -3.46875 26.625 -3.53125 L 34.75 -3.53125 C 36.800781 -3.582031 38.351562 -3.914062 39.40625 -4.53125 C 40.46875 -5.15625 41.304688 -6.113281 41.921875 -7.40625 C 42.546875 -8.695312 43.300781 -10.8125 44.1875 -13.75 C 44.59375 -14.8125 45.59375 -15.222656 47.1875 -14.984375 C 47.769531 -14.867188 48.28125 -14.632812 48.71875 -14.28125 C 49.164062 -13.925781 49.359375 -13.488281 49.296875 -12.96875 L 47.53125 -1.859375 C 47.351562 -1.085938 47.085938 -0.582031 46.734375 -0.34375 C 46.378906 -0.113281 45.789062 0 44.96875 0 L 15.875 0 C 12.695312 0 9.171875 0.0859375 5.296875 0.265625 Z M 27.953125 -61.03125 C 27.773438 -60.90625 27.507812 -60.84375 27.15625 -60.84375 C 26.570312 -60.84375 26.054688 -61.0625 25.609375 -61.5 C 25.171875 -61.945312 24.953125 -62.4375 24.953125 -62.96875 C 24.953125 -63.375 25.097656 -63.726562 25.390625 -64.03125 C 25.691406 -64.320312 26.851562 -65.492188 28.875 -67.546875 C 30.90625 -69.609375 32.863281 -71.34375 34.75 -72.75 C 35.6875 -73.457031 36.476562 -73.988281 37.125 -74.34375 C 37.769531 -74.695312 38.390625 -74.875 38.984375 -74.875 C 39.859375 -74.875 40.617188 -74.460938 41.265625 -73.640625 C 41.859375 -72.992188 42.15625 -72.316406 42.15625 -71.609375 C 42.15625 -70.367188 41.066406 -69.015625 38.890625 -67.546875 C 34.421875 -64.671875 30.773438 -62.5 27.953125 -61.03125 Z M 27.953125 -61.03125 "/></g></g></g><g fill="#bf770a" fill-opacity="1"><g transform="translate(252.539372, 224.22803)"><g><path d="M 31.578125 1.765625 C 26.578125 1.765625 22.003906 0.578125 17.859375 -1.796875 C 13.710938 -4.179688 10.421875 -7.578125 7.984375 -11.984375 C 5.546875 -16.398438 4.328125 -21.546875 4.328125 -27.421875 C 4.328125 -33.359375 5.5 -38.59375 7.84375 -43.125 C 10.195312 -47.65625 13.546875 -51.164062 17.890625 -53.65625 C 22.242188 -56.15625 27.332031 -57.40625 33.15625 -57.40625 C 38.21875 -57.40625 42.71875 -56.390625 46.65625 -54.359375 C 50.59375 -52.335938 52.5625 -49.207031 52.5625 -44.96875 C 52.613281 -42.320312 51.816406 -40.070312 50.171875 -38.21875 C 48.523438 -36.375 46.320312 -35.453125 43.5625 -35.453125 C 42.507812 -35.453125 41.613281 -35.640625 40.875 -36.015625 C 40.132812 -36.398438 39.585938 -36.859375 39.234375 -37.390625 C 38.890625 -37.921875 38.742188 -38.332031 38.796875 -38.625 C 38.796875 -38.738281 39.207031 -39.0625 40.03125 -39.59375 C 40.851562 -40.125 41.585938 -40.859375 42.234375 -41.796875 C 42.890625 -42.742188 43.21875 -43.890625 43.21875 -45.234375 C 43.21875 -47.878906 42.316406 -49.976562 40.515625 -51.53125 C 38.722656 -53.09375 36.238281 -53.875 33.0625 -53.875 C 29.476562 -53.875 26.289062 -52.859375 23.5 -50.828125 C 20.707031 -48.804688 18.53125 -45.835938 16.96875 -41.921875 C 15.414062 -38.015625 14.640625 -33.359375 14.640625 -27.953125 C 14.640625 -23.253906 15.476562 -18.976562 17.15625 -15.125 C 18.832031 -11.269531 21.195312 -8.210938 24.25 -5.953125 C 27.3125 -3.691406 30.8125 -2.5625 34.75 -2.5625 C 37.925781 -2.5625 40.644531 -3.222656 42.90625 -4.546875 C 45.164062 -5.867188 47.207031 -8 49.03125 -10.9375 C 49.320312 -11.46875 49.734375 -11.734375 50.265625 -11.734375 C 50.734375 -11.734375 51.265625 -11.554688 51.859375 -11.203125 C 52.796875 -10.554688 53.265625 -9.910156 53.265625 -9.265625 C 53.265625 -8.910156 53.144531 -8.613281 52.90625 -8.375 C 50.675781 -5.550781 48.578125 -3.421875 46.609375 -1.984375 C 44.640625 -0.546875 42.507812 0.4375 40.21875 0.96875 C 37.925781 1.5 35.046875 1.765625 31.578125 1.765625 Z M 31.578125 1.765625 "/></g></g></g><g fill="#bf770a" fill-opacity="1"><g transform="translate(308.887255, 224.22803)"><g><path d="M 0.53125 0.265625 C 0 0.265625 -0.394531 0.078125 -0.65625 -0.296875 C -0.925781 -0.679688 -1.0625 -1.140625 -1.0625 -1.671875 C -1 -2.554688 -0.820312 -3.085938 -0.53125 -3.265625 C -0.238281 -3.441406 0.109375 -3.53125 0.515625 -3.53125 C 0.929688 -3.53125 1.203125 -3.53125 1.328125 -3.53125 C 3.085938 -3.53125 4.378906 -3.984375 5.203125 -4.890625 C 6.023438 -5.804688 6.6875 -6.835938 7.1875 -7.984375 C 7.6875 -9.128906 8.023438 -9.90625 8.203125 -10.3125 L 23.640625 -46.828125 C 23.984375 -47.710938 24.15625 -48.414062 24.15625 -48.9375 C 24.15625 -50 23.742188 -50.765625 22.921875 -51.234375 C 22.097656 -51.703125 20.953125 -52.085938 19.484375 -52.390625 C 18.484375 -52.554688 17.863281 -52.726562 17.625 -52.90625 C 17.394531 -53.082031 17.28125 -53.582031 17.28125 -54.40625 C 17.28125 -55.113281 17.472656 -55.582031 17.859375 -55.8125 C 18.242188 -56.050781 18.847656 -56.171875 19.671875 -56.171875 C 22.609375 -56.171875 24.941406 -55.953125 26.671875 -55.515625 C 28.410156 -55.078125 29.925781 -54.195312 31.21875 -52.875 C 32.507812 -51.550781 33.710938 -49.535156 34.828125 -46.828125 L 49.65625 -10.3125 C 50.53125 -8.082031 51.378906 -6.40625 52.203125 -5.28125 C 53.023438 -4.164062 54.257812 -3.582031 55.90625 -3.53125 L 56.4375 -3.53125 C 57.03125 -3.53125 57.441406 -3.425781 57.671875 -3.21875 C 57.910156 -3.007812 58.054688 -2.492188 58.109375 -1.671875 C 58.109375 -1.140625 57.976562 -0.679688 57.71875 -0.296875 C 57.457031 0.078125 57.0625 0.265625 56.53125 0.265625 C 52.769531 0.0859375 49.535156 0 46.828125 0 C 43.296875 0 39.648438 0.0859375 35.890625 0.265625 C 35.359375 0.265625 34.960938 0.078125 34.703125 -0.296875 C 34.441406 -0.679688 34.3125 -1.140625 34.3125 -1.671875 C 34.363281 -2.492188 34.503906 -3.007812 34.734375 -3.21875 C 34.972656 -3.425781 35.390625 -3.53125 35.984375 -3.53125 C 37.984375 -3.53125 39.394531 -3.71875 40.21875 -4.09375 C 41.039062 -4.476562 41.453125 -5.171875 41.453125 -6.171875 C 41.453125 -6.929688 41.097656 -8.3125 40.390625 -10.3125 L 37.390625 -17.640625 L 15.609375 -17.640625 C 14.140625 -13.992188 13.300781 -11.875 13.09375 -11.28125 C 12.882812 -10.695312 12.78125 -10.375 12.78125 -10.3125 C 12.082031 -8.082031 11.734375 -6.644531 11.734375 -6 C 11.734375 -5 12.171875 -4.335938 13.046875 -4.015625 C 13.929688 -3.691406 15.609375 -3.53125 18.078125 -3.53125 L 18.609375 -3.53125 C 19.191406 -3.53125 19.597656 -3.425781 19.828125 -3.21875 C 20.066406 -3.007812 20.21875 -2.492188 20.28125 -1.671875 C 20.28125 -1.140625 20.144531 -0.679688 19.875 -0.296875 C 19.613281 0.078125 19.222656 0.265625 18.703125 0.265625 C 14.929688 0.0859375 11.722656 0 9.078125 0 C 7.203125 0 4.351562 0.0859375 0.53125 0.265625 Z M 17.28125 -21.421875 L 35.796875 -21.421875 L 26.890625 -44.09375 L 26.625 -44.09375 Z M 17.28125 -21.421875 "/></g></g></g><g fill="#bf770a" fill-opacity="1"><g transform="translate(366.469671, 224.22803)"><g><path d="M 5.296875 0.265625 C 4.816406 0.265625 4.445312 0.078125 4.1875 -0.296875 C 3.925781 -0.679688 3.796875 -1.140625 3.796875 -1.671875 C 3.847656 -2.554688 4.019531 -3.085938 4.3125 -3.265625 C 4.613281 -3.441406 5.175781 -3.53125 6 -3.53125 C 7.695312 -3.53125 8.957031 -3.835938 9.78125 -4.453125 C 10.601562 -5.066406 11.117188 -5.828125 11.328125 -6.734375 C 11.535156 -7.648438 11.671875 -8.84375 11.734375 -10.3125 L 11.734375 -45.328125 C 11.671875 -46.796875 11.535156 -47.984375 11.328125 -48.890625 C 11.117188 -49.804688 10.601562 -50.570312 9.78125 -51.1875 C 8.957031 -51.8125 7.695312 -52.125 6 -52.125 L 5.46875 -52.125 C 4.875 -52.125 4.457031 -52.222656 4.21875 -52.421875 C 3.988281 -52.628906 3.847656 -53.144531 3.796875 -53.96875 C 3.796875 -54.5 3.925781 -54.953125 4.1875 -55.328125 C 4.445312 -55.710938 4.816406 -55.90625 5.296875 -55.90625 C 9.109375 -55.726562 12.601562 -55.640625 15.78125 -55.640625 L 41.265625 -55.640625 C 42.796875 -55.640625 43.5625 -54.9375 43.5625 -53.53125 L 43.828125 -41.1875 C 43.828125 -40.65625 43.5625 -40.226562 43.03125 -39.90625 C 42.5 -39.582031 41.972656 -39.421875 41.453125 -39.421875 C 40.742188 -39.421875 40.109375 -39.550781 39.546875 -39.8125 C 38.992188 -40.082031 38.6875 -40.476562 38.625 -41 C 38.21875 -43.882812 37.734375 -46.078125 37.171875 -47.578125 C 36.609375 -49.078125 35.78125 -50.191406 34.6875 -50.921875 C 33.601562 -51.660156 32.066406 -52.0625 30.078125 -52.125 L 20.453125 -52.125 L 20.453125 -29.1875 L 36.25 -29.1875 C 36.71875 -29.132812 37.066406 -28.914062 37.296875 -28.53125 C 37.535156 -28.144531 37.65625 -27.6875 37.65625 -27.15625 C 37.65625 -26.6875 37.535156 -26.273438 37.296875 -25.921875 C 37.066406 -25.566406 36.71875 -25.390625 36.25 -25.390625 L 20.453125 -25.390625 L 20.453125 -10.3125 C 20.515625 -8.84375 20.648438 -7.648438 20.859375 -6.734375 C 21.066406 -5.828125 21.582031 -5.066406 22.40625 -4.453125 C 23.226562 -3.835938 24.488281 -3.53125 26.1875 -3.53125 L 26.71875 -3.53125 C 27.25 -3.53125 27.644531 -3.425781 27.90625 -3.21875 C 28.175781 -3.007812 28.335938 -2.492188 28.390625 -1.671875 C 28.390625 -1.140625 28.257812 -0.679688 28 -0.296875 C 27.738281 0.078125 27.34375 0.265625 26.8125 0.265625 C 23.050781 0.0859375 19.40625 0 15.875 0 C 12.632812 0 9.109375 0.0859375 5.296875 0.265625 Z M 5.296875 0.265625 "/></g></g></g><g fill="#bf770a" fill-opacity="1"><g transform="translate(412.764875, 224.22803)"><g><path d="M 5.296875 0.265625 C 4.816406 0.265625 4.445312 0.078125 4.1875 -0.296875 C 3.925781 -0.679688 3.796875 -1.140625 3.796875 -1.671875 C 3.847656 -2.554688 4.019531 -3.085938 4.3125 -3.265625 C 4.613281 -3.441406 5.175781 -3.53125 6 -3.53125 C 7.695312 -3.53125 8.957031 -3.835938 9.78125 -4.453125 C 10.601562 -5.066406 11.117188 -5.828125 11.328125 -6.734375 C 11.535156 -7.648438 11.671875 -8.84375 11.734375 -10.3125 L 11.734375 -45.328125 C 11.671875 -46.796875 11.535156 -47.984375 11.328125 -48.890625 C 11.117188 -49.804688 10.601562 -50.570312 9.78125 -51.1875 C 8.957031 -51.8125 7.695312 -52.125 6 -52.125 L 5.46875 -52.125 C 4.875 -52.125 4.457031 -52.222656 4.21875 -52.421875 C 3.988281 -52.628906 3.847656 -53.144531 3.796875 -53.96875 C 3.796875 -54.5 3.925781 -54.953125 4.1875 -55.328125 C 4.445312 -55.710938 4.816406 -55.90625 5.296875 -55.90625 C 9.171875 -55.726562 12.664062 -55.640625 15.78125 -55.640625 L 43.46875 -55.640625 C 45 -55.640625 45.765625 -54.9375 45.765625 -53.53125 L 46.03125 -41.1875 C 46.03125 -40.65625 45.765625 -40.226562 45.234375 -39.90625 C 44.710938 -39.582031 44.1875 -39.421875 43.65625 -39.421875 C 42.945312 -39.421875 42.328125 -39.550781 41.796875 -39.8125 C 41.265625 -40.082031 40.972656 -40.476562 40.921875 -41 C 40.453125 -43.882812 39.9375 -46.078125 39.375 -47.578125 C 38.8125 -49.078125 37.988281 -50.191406 36.90625 -50.921875 C 35.820312 -51.660156 34.28125 -52.0625 32.28125 -52.125 L 20.453125 -52.125 L 20.453125 -29.71875 L 36.421875 -29.71875 C 36.828125 -29.65625 37.148438 -29.429688 37.390625 -29.046875 C 37.628906 -28.671875 37.75 -28.21875 37.75 -27.6875 C 37.75 -27.21875 37.628906 -26.804688 37.390625 -26.453125 C 37.148438 -26.097656 36.828125 -25.921875 36.421875 -25.921875 L 20.453125 -25.921875 L 20.453125 -9.265625 C 20.578125 -8.023438 20.726562 -7.035156 20.90625 -6.296875 C 21.082031 -5.566406 21.609375 -4.90625 22.484375 -4.3125 C 23.367188 -3.726562 24.75 -3.46875 26.625 -3.53125 L 34.75 -3.53125 C 36.800781 -3.582031 38.351562 -3.914062 39.40625 -4.53125 C 40.46875 -5.15625 41.304688 -6.113281 41.921875 -7.40625 C 42.546875 -8.695312 43.300781 -10.8125 44.1875 -13.75 C 44.59375 -14.8125 45.59375 -15.222656 47.1875 -14.984375 C 47.769531 -14.867188 48.28125 -14.632812 48.71875 -14.28125 C 49.164062 -13.925781 49.359375 -13.488281 49.296875 -12.96875 L 47.53125 -1.859375 C 47.351562 -1.085938 47.085938 -0.582031 46.734375 -0.34375 C 46.378906 -0.113281 45.789062 0 44.96875 0 L 15.875 0 C 12.695312 0 9.171875 0.0859375 5.296875 0.265625 Z M 27.953125 -61.03125 C 27.773438 -60.90625 27.507812 -60.84375 27.15625 -60.84375 C 26.570312 -60.84375 26.054688 -61.0625 25.609375 -61.5 C 25.171875 -61.945312 24.953125 -62.4375 24.953125 -62.96875 C 24.953125 -63.375 25.097656 -63.726562 25.390625 -64.03125 C 25.691406 -64.320312 26.851562 -65.492188 28.875 -67.546875 C 30.90625 -69.609375 32.863281 -71.34375 34.75 -72.75 C 35.6875 -73.457031 36.476562 -73.988281 37.125 -74.34375 C 37.769531 -74.695312 38.390625 -74.875 38.984375 -74.875 C 39.859375 -74.875 40.617188 -74.460938 41.265625 -73.640625 C 41.859375 -72.992188 42.15625 -72.316406 42.15625 -71.609375 C 42.15625 -70.367188 41.066406 -69.015625 38.890625 -67.546875 C 34.421875 -64.671875 30.773438 -62.5 27.953125 -61.03125 Z M 27.953125 -61.03125 "/></g></g></g><g clip-path="url(#97c3f19768)"><path fill="#8c9def" d="M 223.792969 31.195312 C 223.792969 31.195312 224.519531 31.941406 224.519531 32.847656 C 224.519531 32.847656 231.5 34.199219 237.960938 36.609375 C 244.425781 39.015625 259.175781 44.894531 261.996094 46.832031 C 261.996094 46.832031 284.675781 53.414062 288.085938 54.414062 C 291.496094 55.410156 304.246094 59.347656 310.179688 62.933594 C 316.117188 66.519531 318.464844 71.277344 318.640625 72.980469 C 318.816406 74.683594 318.113281 78.5625 315.117188 80.386719 C 312.121094 82.207031 305.363281 84.617188 296.019531 83.792969 C 286.675781 82.972656 271.164062 80.445312 266.460938 78.328125 C 261.761719 76.214844 243.484375 68.691406 233.847656 54.355469 C 224.210938 40.015625 222.976562 36.433594 222.976562 36.433594 L 221.964844 37.429688 C 221.964844 37.429688 222.667969 46.464844 221.609375 49.066406 C 221.609375 49.066406 222.363281 97.191406 222.363281 98.867188 C 222.363281 100.539062 224.476562 140.117188 222.539062 143.820312 C 222.539062 143.820312 222.199219 146.367188 222.023438 148.089844 C 221.984375 148.484375 221.460938 148.589844 221.265625 148.238281 C 221 147.761719 220.875 147.339844 220.6875 147.300781 C 220.515625 147.265625 220.199219 147.253906 219.980469 147.246094 C 219.886719 147.242188 219.796875 147.285156 219.746094 147.363281 L 219.1875 148.128906 C 218.980469 148.472656 218.453125 148.335938 218.4375 147.933594 C 218.382812 146.4375 218.273438 144.199219 218.128906 143.90625 C 217.910156 143.464844 217.558594 142.628906 217.558594 139.101562 C 217.558594 135.578125 217.75 123.402344 217.867188 121.046875 C 217.984375 118.699219 217.367188 99.128906 217.558594 97.722656 C 217.75 96.308594 217.519531 69.042969 217.519531 69.042969 C 217.519531 69.042969 217.902344 49.742188 217.601562 49.214844 C 217.300781 48.683594 216.570312 47.242188 216.570312 43.542969 C 216.570312 39.839844 217.101562 37.605469 217.101562 37.605469 L 215.808594 36.550781 C 215.808594 36.550781 211.167969 46.890625 206.996094 53.121094 C 202.824219 59.347656 194.539062 69.042969 191.773438 70.691406 C 189.015625 72.335938 168.328125 89.789062 139.066406 88.90625 C 109.804688 88.023438 126.375 71.710938 129.371094 69.730469 C 132.367188 67.753906 141.179688 62.875 145.234375 61.40625 C 149.289062 59.9375 175.734375 50.300781 176.617188 49.828125 C 177.496094 49.359375 186.253906 44.601562 188.015625 43.71875 C 189.777344 42.835938 209.726562 32.9375 214.898438 33.023438 L 215.574219 31.261719 C 215.574219 31.261719 214.074219 30.644531 214.25 29.410156 C 214.25 29.410156 212.402344 30.378906 206.320312 31.792969 C 200.238281 33.199219 168.328125 40.074219 155.550781 36.371094 C 142.769531 32.671875 129.636719 29.234375 119.148438 19.976562 C 108.65625 10.726562 110.683594 6.933594 110.949219 5.699219 C 111.214844 4.464844 114.917969 0.0585938 122.847656 0.0585938 C 130.78125 0.0585938 140.210938 2.175781 143.472656 3.230469 C 146.734375 4.289062 171.765625 12.046875 174.234375 14.074219 C 174.234375 14.074219 179.878906 14.515625 190.101562 16.714844 C 200.324219 18.921875 214.898438 25.796875 214.898438 25.796875 C 214.898438 25.796875 214.511719 25.226562 214.605469 23.769531 C 214.699219 22.238281 216.894531 18.832031 216.894531 18.832031 C 216.894531 18.832031 215.558594 18.539062 215.160156 18.804688 C 214.496094 19.25 212.121094 19.011719 211.597656 16.921875 C 211.28125 15.667969 211.230469 14.265625 212.167969 13.304688 C 212.632812 12.832031 214.398438 11.253906 216.777344 12.320312 C 216.941406 12.394531 217.113281 12.441406 217.28125 12.5 C 217.164062 11.632812 216.867188 10.765625 216.519531 9.9375 C 216.070312 8.875 215.519531 7.847656 214.898438 6.863281 C 215.585938 7.800781 216.207031 8.792969 216.738281 9.835938 C 217 10.363281 217.246094 10.894531 217.4375 11.457031 C 217.566406 11.851562 217.679688 12.253906 217.75 12.667969 C 217.992188 12.753906 218.238281 12.839844 218.484375 12.925781 C 218.484375 12.925781 220.449219 12.28125 221.746094 12.925781 C 221.746094 12.925781 222.285156 12.746094 222.984375 12.578125 C 223.050781 12.34375 223.132812 12.109375 223.222656 11.890625 C 223.433594 11.359375 223.722656 10.871094 224.027344 10.398438 C 224.640625 9.457031 225.363281 8.597656 226.152344 7.816406 C 225.417969 8.652344 224.765625 9.558594 224.230469 10.519531 C 223.96875 11.003906 223.726562 11.496094 223.558594 12.015625 C 223.507812 12.167969 223.464844 12.324219 223.425781 12.480469 C 223.921875 12.378906 224.449219 12.300781 224.902344 12.308594 C 226.175781 12.332031 227.164062 12.640625 227.957031 13.808594 C 228.75 14.976562 228.597656 15.925781 228.53125 16.496094 C 228.464844 17.070312 227.5625 18.765625 226.503906 19.074219 C 225.445312 19.382812 223.800781 18.746094 223.800781 18.746094 C 223.800781 18.746094 223.023438 18.921875 222.867188 18.964844 C 222.714844 19.007812 224.390625 22.003906 224.359375 23.855469 C 224.34375 24.679688 224.035156 25.621094 224.035156 25.621094 C 224.035156 25.621094 230.382812 23.210938 231.878906 22.5625 C 233.378906 21.917969 260.085938 15.570312 264.667969 16.539062 C 264.667969 16.539062 283.882812 10.8125 293.578125 8.34375 C 303.277344 5.875 311.121094 4.640625 317.90625 5.4375 C 324.695312 6.230469 327.808594 9.503906 328.042969 11.253906 C 328.363281 13.660156 329.894531 18.390625 316.671875 26.324219 C 303.453125 34.257812 288.730469 38.929688 278.507812 39.546875 C 268.28125 40.164062 263.289062 39.957031 251.417969 37.078125 C 239.550781 34.199219 236.964844 33.789062 233.90625 32.964844 C 230.851562 32.144531 224.902344 29.558594 224.902344 29.558594 C 224.902344 29.558594 224.894531 31.238281 223.792969 31.195312 " fill-opacity="1" fill-rule="nonzero"/></g></svg>